<?xml version="1.0" encoding="UTF-8" standalone="no"?>
<svg
   xmlns:dc="http://purl.org/dc/elements/1.1/"
   xmlns:cc="http://creativecommons.org/ns#"
   xmlns:rdf="http://www.w3.org/1999/02/22-rdf-syntax-ns#"
   xmlns:svg="http://www.w3.org/2000/svg"
   xmlns="http://www.w3.org/2000/svg"
   xmlns:sodipodi="http://sodipodi.sourceforge.net/DTD/sodipodi-0.dtd"
   xmlns:inkscape="http://www.inkscape.org/namespaces/inkscape"
   enable-background="new 0 0 256 256"
   height="256px"
   id="Layer_1"
   version="1.1"
   viewBox="0 0 256 256"
   width="256px"
   xml:space="preserve"
   sodipodi:docname="iconfinder_Collar_5439773.svg"
   inkscape:version="0.92.4 (5da689c313, 2019-01-14)"><metadata
     id="metadata194"><rdf:RDF><cc:Work
         rdf:about=""><dc:format>image/svg+xml</dc:format><dc:type
           rdf:resource="http://purl.org/dc/dcmitype/StillImage" /></cc:Work></rdf:RDF></metadata><defs
     id="defs192" /><sodipodi:namedview
     pagecolor="#ffffff"
     bordercolor="#666666"
     borderopacity="1"
     objecttolerance="10"
     gridtolerance="10"
     guidetolerance="10"
     inkscape:pageopacity="0"
     inkscape:pageshadow="2"
     inkscape:window-width="1858"
     inkscape:window-height="1057"
     id="namedview190"
     showgrid="false"
     inkscape:zoom="2.6074563"
     inkscape:cx="110.38634"
     inkscape:cy="127.38408"
     inkscape:window-x="54"
     inkscape:window-y="-8"
     inkscape:window-maximized="1"
     inkscape:current-layer="Layer_1" /><g
     id="g187"><path
       d="M128,31.888C58.762,31.888,4.526,55.72,4.526,86.143v53.863c0,10.078,5.04,24.56,29.051,36.319   c1.433,0.701,3.145,0.484,4.356-0.551c1.212-1.035,1.695-2.691,1.227-4.216c-1.064-3.47-0.501-8.155,0.096-13.116   c0.166-1.379,0.334-2.782,0.476-4.202c1.603-16.022,5.726-21.84,8.903-23.899c1.26-0.816,1.957-2.27,1.804-3.763   c-0.153-1.493-1.128-2.776-2.527-3.321c-7.618-2.968-13.351-6.438-18.588-10.106C52.224,98.386,88.539,89.68,128,89.68   c39.394,0,75.651,8.676,98.558,23.395c-22.907,14.719-59.164,23.395-98.558,23.395c-28.442,0-47.248-2.308-64.909-7.966   c-1.197-0.383-2.504-0.181-3.531,0.544c-7.259,5.137-12.574,16.394-13.872,29.378c-0.794,7.947,0.026,15.82,2.311,22.17   c0.395,1.097,1.249,1.967,2.338,2.383c18.419,7.027,39.137,10.405,68.706,11.154v11.584h-8.737c0,0-1.888,0.108-3.275-0.638   c-1.387-0.745-4.248-3.732-9.541-3.732c-4.877,0-6.204,2.817-6.204,4.825c0,0-1.224,4.804,5.024,6.295c0,0,0.308,0.056,0.308,0.263   c0,0.208-0.308,0.263-0.308,0.263c-6.249,1.492-5.025,6.296-5.025,6.296c0,2.008,1.327,4.825,6.205,4.825   c5.292,0,8.153-2.988,9.541-3.733c1.387-0.745,3.275-0.637,3.275-0.637H128h17.694c0,0,1.889-0.108,3.275,0.637   c1.387,0.745,4.249,3.733,9.54,3.733c4.877,0,6.205-2.817,6.205-4.825c0,0,1.224-4.804-5.025-6.296c0,0-0.308-0.055-0.308-0.263   c0-0.207,0.308-0.263,0.308-0.263c6.249-1.491,5.025-6.295,5.025-6.295c0-2.008-1.327-4.825-6.205-4.825   c-5.292,0-8.153,2.987-9.54,3.732c-1.386,0.746-3.275,0.638-3.275,0.638h-8.737v-11.606c29.89-0.918,57.727-6.41,78.743-15.596   c23.069-10.084,35.774-23.76,35.774-38.508V86.143C251.474,55.72,197.238,31.888,128,31.888z M39.395,128.312   c-3.966,5.363-6.476,13.668-7.622,25.132c-0.137,1.367-0.299,2.717-0.459,4.043c-0.333,2.771-0.658,5.468-0.739,8.082   c-9.286-5.702-18.049-14.115-18.049-25.563v-29.893l7.332,6.047c0.033,0.027,0.069,0.045,0.103,0.07   c0.022,0.017,0.037,0.039,0.059,0.056C25.741,120.532,31.58,124.654,39.395,128.312z M128,81.68   c-42.3,0-81.366,9.813-105.418,26.357l-10.056-8.293V86.143c0-25.072,52.881-46.255,115.474-46.255S243.474,61.07,243.474,86.143   v13.602l-10.056,8.293C209.366,91.492,170.3,81.68,128,81.68z M128,205.716h-0.957v-27.272c0-0.527,0.429-0.957,0.957-0.957   s0.957,0.43,0.957,0.957v27.272H128z M212.496,171.184c-20.048,8.763-46.744,14.016-75.539,14.925v-7.665   c0-4.938-4.018-8.957-8.957-8.957s-8.957,4.019-8.957,8.957v7.682c-27.532-0.71-47.022-3.738-64.077-9.959   c-1.455-4.942-1.923-10.882-1.317-16.946c0.959-9.599,4.451-18.127,9.077-22.449c17.9,5.457,37.038,7.698,65.274,7.698   c43.835,0,84.202-10.535,107.981-28.183c0.022-0.017,0.038-0.04,0.06-0.057c0.033-0.025,0.069-0.043,0.101-0.069l7.332-6.047   v29.893C243.474,151.214,232.183,162.578,212.496,171.184z"
       fill="#F0C061"
       id="path175" /><circle
       cx="128"
       cy="60"
       fill="#F0C061"
       r="4.961"
       id="circle177" /><circle
       cx="85.875"
       cy="64"
       fill="#F0C061"
       r="4.961"
       id="circle179" /><circle
       cx="43.75"
       cy="75.75"
       fill="#F0C061"
       r="4.961"
       id="circle181" /><circle
       cx="212.25"
       cy="75.75"
       fill="#F0C061"
       r="4.961"
       id="circle183" /><circle
       cx="170.125"
       cy="64"
       fill="#F0C061"
       r="4.961"
       id="circle185" /></g><path
     style="fill:#f2f2f2;stroke-width:0.38351554"
     d="m 94.317042,223.42 c -1.8521,-0.81754 -2.605221,-1.95037 -2.791717,-4.19927 -0.237814,-2.86773 0.511191,-4.13941 3.218102,-5.46378 l 2.164891,-1.05918 -1.897999,-0.83764 c -2.593593,-1.14463 -3.569644,-2.47014 -3.569644,-4.84769 0,-3.78534 1.853523,-5.4184 6.130389,-5.40122 2.901516,0.0117 5.523226,0.90492 8.287526,2.82368 l 1.8815,1.306 5.65685,0.13105 5.65685,0.13105 v -5.94183 -5.94183 l -4.5063,-0.23738 c -22.473934,-1.18386 -34.251899,-2.63506 -47.268294,-5.82409 -7.912654,-1.9386 -17.055803,-5.03835 -18.181367,-6.16391 -0.931659,-0.93166 -2.031141,-4.40349 -2.95378,-9.32716 -0.67193,-3.58576 -0.583587,-13.26226 0.161104,-17.64627 1.424453,-8.38581 4.532318,-16.00309 8.636475,-21.16774 2.261947,-2.84642 5.331472,-5.29027 6.644675,-5.29027 0.382453,0 3.09548,0.6783 6.028952,1.50735 9.696424,2.74036 19.572363,4.4762 31.879247,5.60322 9.071098,0.83071 34.106028,1.17788 43.337258,0.60098 28.67319,-1.79192 52.71543,-7.35207 72.39103,-16.74159 5.96194,-2.84514 11.27861,-5.92908 11.10734,-6.44286 -0.23447,-0.70341 -8.59496,-5.25435 -14.24282,-7.75291 -14.73,-6.516423 -33.46166,-11.414956 -52.75454,-13.795882 -17.41869,-2.149635 -40.00307,-2.364948 -57.72893,-0.550368 -22.462662,2.299479 -43.683658,7.737484 -59.952591,15.3632 -4.302381,2.01665 -12.345108,6.47508 -12.331901,6.8361 0.03153,0.86191 12.173213,7.78759 16.866493,9.62074 2.494753,0.97442 3.710889,2.01208 4.02286,3.43246 0.344193,1.56711 -0.288285,2.75522 -2.681675,5.03756 -3.330572,3.17603 -5.716332,8.79958 -7.06347,16.64953 -0.793704,4.62502 -1.948026,15.67962 -1.948026,18.65567 0,1.68125 0.19324,3.82424 0.429423,4.76221 0.76473,3.03702 -0.747982,5.15563 -3.67876,5.15224 -1.189285,-0.002 -2.531503,-0.56202 -5.834702,-2.43716 -11.440246,-6.49431 -18.836963,-13.88422 -22.3546334,-22.33405 -2.324657,-5.58407 -2.310695,-5.35162 -2.310695,-38.47079 0,-28.867655 0.033879,-30.346227 0.7617534,-33.244902 5.437985,-21.656134 39.129478,-39.421219 86.488033,-45.604015 14.255851,-1.861141 38.634661,-2.668877 53.135251,-1.760514 42.64766,2.671583 77.50571,13.948276 94.84799,30.68363 5.30199,5.116441 8.50087,10.018271 10.28261,15.756641 l 0.8931,2.876367 v 31.256513 31.25652 l -0.90014,2.86669 c -5.17661,16.48619 -25.0228,30.04795 -56.68198,38.73325 -15.28618,4.19357 -29.86677,6.34393 -53.73327,7.92462 l -3.164,0.20956 v 5.91006 5.91007 h 5.28795 c 4.87984,0 5.42003,-0.0721 6.99916,-0.93444 5.47604,-2.99029 6.45183,-3.35422 9.09215,-3.39108 4.36761,-0.061 6.42562,1.61521 6.42562,5.23342 0,2.57816 -0.80396,3.79275 -3.25469,4.91704 -1.05752,0.48515 -1.92277,0.98522 -1.92277,1.11126 0,0.12605 0.65435,0.42523 1.45411,0.66484 3.18912,0.95549 4.71498,4.31578 3.39464,7.47579 -0.4464,1.0684 -1.02463,1.63108 -2.24559,2.18523 -3.17137,1.43936 -6.88803,0.81924 -11.38891,-1.90023 l -2.60685,-1.57508 -20.28688,0.10578 -20.28688,0.10578 -2.15903,1.46182 c -3.56081,2.41092 -8.096666,3.25602 -10.880498,2.02721 z m 34.616998,-31.57638 c -0.096,-13.44183 -0.13372,-14.09541 -0.82167,-14.22781 -0.3966,-0.0763 -0.86856,0.0939 -1.0488,0.37836 -0.38244,0.60348 -0.46326,27.30334 -0.0838,27.68281 0.14062,0.14062 0.6605,0.25568 1.15527,0.25568 h 0.8996 z m -9.80813,-10.55184 c 0.17261,-5.44906 0.52238,-6.65889 2.5604,-8.85598 3.26898,-3.52415 9.47072,-3.61991 12.56147,-0.19396 2.07557,2.30067 2.2465,2.89789 2.44773,8.55184 l 0.19176,5.38792 3.83515,-0.1217 c 2.10934,-0.0669 6.85534,-0.37628 10.54668,-0.68742 47.24313,-3.98208 83.65165,-19.63664 91.24481,-39.2325 l 0.9798,-2.5286 0.12339,-16.77881 c 0.0679,-9.22834 0.0294,-16.7788 -0.0855,-16.7788 -0.11487,0 -2.15278,1.59638 -4.52869,3.54752 -10.02668,8.23404 -21.71048,14.33096 -37.68506,19.66508 -15.14535,5.05723 -32.56544,8.51092 -51.58284,10.22678 -8.66709,0.782 -41.51977,0.65313 -50.624054,-0.19858 -12.600123,-1.17874 -22.678194,-2.88528 -31.831644,-5.39009 l -4.64111,-1.27003 -1.478863,1.68008 c -3.089175,3.50949 -5.921652,10.43212 -7.167414,17.51731 -1.035692,5.89042 -0.692307,16.0946 0.662481,19.68677 0.254808,0.67562 1.380042,1.18453 5.681541,2.56962 14.581188,4.69516 31.968751,7.19479 57.235213,8.22813 l 1.39376,0.057 z M 30.845219,164.1627 c 0,-1.92988 1.383327,-13.82148 2.100708,-18.05847 0.862138,-5.09195 2.350156,-9.83826 4.328503,-13.80656 0.999006,-2.00387 1.86751,-3.75366 1.930009,-3.88842 0.0625,-0.13477 -1.736896,-1.22446 -3.998656,-2.42154 -5.19174,-2.74784 -12.903343,-7.99476 -18.358881,-12.49125 l -4.218671,-3.47706 -0.106449,16.02896 c -0.115713,17.42389 0.03445,19.1499 2.042477,23.47564 2.186126,4.70943 6.6539,9.66271 12.445805,13.79828 1.792935,1.2802 3.389319,2.3307 3.547519,2.33444 0.1582,0.004 0.287636,-0.66857 0.287636,-1.49402 z M 26.683587,105.53376 C 53.249538,89.276512 94.213746,80.589306 137.27078,82.081734 c 36.89809,1.278947 70.42385,9.873987 92.38145,23.683936 l 3.78935,2.38327 3.63351,-2.97862 c 1.99842,-1.63824 4.29929,-3.49637 5.11303,-4.12917 l 1.47953,-1.150542 0.008,-7.478554 c 0.005,-5.048544 -0.17043,-8.319065 -0.54048,-10.065304 C 239.10436,63.327278 204.35225,46.632674 157.97989,41.439058 137.98708,39.199902 112.56091,39.401994 93.550011,41.95116 64.485412,45.848424 40.520929,53.923003 26.034377,64.699837 c -4.285481,3.188054 -9.282453,8.570274 -11.011244,11.86017 -2.288261,4.354566 -2.587251,6.121679 -2.582199,15.261472 l 0.0045,8.069129 5.036105,4.130952 c 4.688667,3.84596 5.091851,4.09444 5.844151,3.60179 0.444425,-0.29104 1.955496,-1.23136 3.357936,-2.08959 z"
     id="path210"
     inkscape:connector-curvature="0" /><path
     style="fill:#f2f2f2;stroke-width:0.38351554"
     d="m 41.314637,79.794021 c -2.333668,-1.465597 -3.037496,-4.190778 -1.664086,-6.443246 1.724417,-2.828139 5.342747,-3.170948 7.589727,-0.719068 1.022815,1.116084 1.246656,1.672237 1.246656,3.097421 0,3.6371 -4.128117,5.976707 -7.172297,4.064893 z"
     id="path212"
     inkscape:connector-curvature="0" /><path
     style="fill:#f2f2f2;stroke-width:0.38351554"
     d="m 83.341393,68.057633 c -1.175665,-0.638904 -2.255637,-2.704688 -2.255637,-4.31461 0,-2.975705 3.353541,-5.214642 6.337605,-4.2312 1.747622,0.575954 3.250283,2.53211 3.250283,4.2312 0,1.656783 -1.096808,3.693035 -2.333763,4.332689 -1.358461,0.702487 -3.688059,0.694061 -4.998488,-0.01808 z"
     id="path214"
     inkscape:connector-curvature="0" /><path
     style="fill:#f2f2f2;stroke-width:0.38351554"
     d="m 126.11755,64.427365 c -1.57539,-0.637312 -2.84508,-2.626561 -2.84508,-4.457431 0,-3.443341 3.81222,-5.782058 6.85782,-4.20712 1.39183,0.719744 2.72649,2.660059 2.72863,3.966859 0.006,3.442781 -3.61194,5.963678 -6.74137,4.697692 z"
     id="path216"
     inkscape:connector-curvature="0" /><path
     style="fill:#f2f2f2;stroke-width:0.38351554"
     d="m 166.76313,67.330138 c -1.13682,-1.136817 -1.30396,-1.550885 -1.30396,-3.230457 0,-5.597221 7.46109,-6.692306 9.22299,-1.353685 0.56032,1.697792 -0.0688,3.621875 -1.6077,4.916755 -0.90003,0.757328 -1.57883,0.97134 -3.08088,0.97134 -1.67957,0 -2.09364,-0.167136 -3.23045,-1.303953 z"
     id="path218"
     inkscape:connector-curvature="0" /><path
     style="fill:#f2f2f2;stroke-width:0.38351554"
     d="m 209.90604,79.948985 c -3.18756,-1.732535 -3.07921,-6.84122 0.17788,-8.386812 1.60961,-0.763811 2.57144,-0.787594 4.20741,-0.104039 3.42529,1.431176 3.56354,6.78022 0.21993,8.509268 -1.34809,0.697123 -3.30313,0.689305 -4.60522,-0.01842 z"
     id="path220"
     inkscape:connector-curvature="0" /></svg>