<?xml version="1.0" encoding="UTF-8" standalone="no"?>
<svg
   xmlns:dc="http://purl.org/dc/elements/1.1/"
   xmlns:cc="http://creativecommons.org/ns#"
   xmlns:rdf="http://www.w3.org/1999/02/22-rdf-syntax-ns#"
   xmlns:svg="http://www.w3.org/2000/svg"
   xmlns="http://www.w3.org/2000/svg"
   xmlns:sodipodi="http://sodipodi.sourceforge.net/DTD/sodipodi-0.dtd"
   xmlns:inkscape="http://www.inkscape.org/namespaces/inkscape"
   id="Capa_1"
   enable-background="new 0 0 512 512"
   height="512"
   viewBox="0 0 512 512"
   width="512"
   version="1.1"
   sodipodi:docname="fish.svg"
   inkscape:version="0.92.4 (5da689c313, 2019-01-14)">
  <metadata
     id="metadata19">
    <rdf:RDF>
      <cc:Work
         rdf:about="">
        <dc:format>image/svg+xml</dc:format>
        <dc:type
           rdf:resource="http://purl.org/dc/dcmitype/StillImage" />
      </cc:Work>
    </rdf:RDF>
  </metadata>
  <defs
     id="defs17" />
  <sodipodi:namedview
     pagecolor="#ffffff"
     bordercolor="#666666"
     borderopacity="1"
     objecttolerance="10"
     gridtolerance="10"
     guidetolerance="10"
     inkscape:pageopacity="0"
     inkscape:pageshadow="2"
     inkscape:window-width="1858"
     inkscape:window-height="1057"
     id="namedview15"
     showgrid="false"
     inkscape:zoom="0.65186406"
     inkscape:cx="-105.09997"
     inkscape:cy="241.65358"
     inkscape:window-x="54"
     inkscape:window-y="-8"
     inkscape:window-maximized="1"
     inkscape:current-layer="Capa_1" />
  <g
     id="g12"
     style="fill:#ececec"
     transform="matrix(0.90092495,0,0,0.92509462,26.130292,38.351554)">
    <circle
       cx="327.31201"
       cy="329.345"
       r="7.5"
       id="circle2"
       style="fill:#ececec" />
    <path
       d="m 363.117,322.099 c -1.458,-1.488 -0.031,-2.563 -14.123,-19.031 -6.034,-6.619 -12.814,-12.523 -20.237,-17.611 -10.827,-7.637 -26.637,-14.7 -40.35,-17.607 -3.175,-12.382 -12.223,-24.011 -25.974,-33.202 -21.854,-14.636 -45.587,-10.916 -54.777,-8.638 -2.806,0.696 -4.962,2.941 -5.542,5.773 -3.376,16.481 -1.307,32.342 6.346,46.409 -12.894,6.737 -24.5,15.897 -34.193,27.138 l -19.266,-19.266 c -13.145,-13.129 -34.529,-13.129 -47.68,0.008 -11.477,11.465 -13.1,30.078 -3.701,43.271 -9.286,13.146 -8.052,31.511 3.706,43.28 6.363,6.363 14.827,9.867 23.834,9.867 9.013,0 17.48,-3.504 23.845,-9.868 l 19.259,-19.266 c 9.694,11.242 21.3,20.404 34.195,27.142 -7.611,14.016 -9.721,29.935 -6.345,46.41 0.58,2.832 2.736,5.077 5.542,5.773 15.91,3.946 37.118,3.167 54.772,-8.634 13.756,-9.195 22.805,-20.824 25.979,-33.207 10.228,-2.416 24.986,-7.273 40.224,-17.661 8.599,-5.862 15.301,-12.089 20.362,-17.557 0,0 10.815,-12.831 16.208,-22.671 2.133,-3.893 0.635,-8.076 -2.084,-10.852 z m -199.716,16.5 c 0.563,0.904 1.144,1.792 1.728,2.677 l -20.732,20.741 c -3.529,3.53 -8.23,5.474 -13.236,5.474 -5,0 -9.697,-1.944 -13.225,-5.471 -7.293,-7.301 -7.294,-19.173 -0.002,-26.466 1.725,-1.725 3.114,-3.727 3.106,-6.234 -0.007,-2.4 -1.385,-4.458 -3.102,-6.177 -3.533,-3.54 -5.479,-8.242 -5.479,-13.242 0,-4.993 1.945,-9.692 5.471,-13.224 7.298,-7.291 19.172,-7.29 26.466,-0.003 l 20.735,20.735 c -0.585,0.886 -1.167,1.776 -1.731,2.681 -3.505,5.622 -3.505,12.888 0.001,18.509 z m 52.611,-98.97 c 8.478,-1.31 24.078,-1.891 38.08,7.487 8.089,5.407 14.005,11.656 17.369,18.192 -2.919,-0.22 -5.856,-0.343 -8.813,-0.343 -14.057,0 -27.69,2.471 -40.404,7.128 -1.202,-2.102 -2.256,-4.226 -3.118,-6.359 -3.203,-7.933 -4.259,-16.873 -3.114,-26.105 z m 38.075,171.95 c -13.999,9.374 -29.598,8.793 -38.075,7.483 -1.145,-9.232 -0.089,-18.173 3.115,-26.11 0.853,-2.118 1.908,-4.241 3.117,-6.354 12.714,4.657 26.347,7.128 40.404,7.128 2.957,0 5.895,-0.123 8.813,-0.343 -3.364,6.536 -9.282,12.786 -17.374,18.196 z m 47.056,-40.406 c -12.027,4.911 -25.068,7.552 -38.496,7.552 -14.015,0 -27.545,-2.825 -39.947,-8.091 -0.366,-0.188 -0.739,-0.351 -1.122,-0.475 -18.458,-8.103 -34.336,-21.671 -45.45,-39.497 -0.499,-0.801 -0.499,-1.836 0,-2.637 11.097,-17.799 26.945,-31.352 45.368,-39.459 0.446,-0.137 0.879,-0.328 1.302,-0.553 12.375,-5.24 25.871,-8.05 39.849,-8.05 13.428,0 26.469,2.642 38.496,7.552 -8.201,12.339 -12.643,26.875 -12.643,41.828 0,14.953 4.442,29.491 12.643,41.83 z m 13.547,-6.757 c -7.251,-10.211 -11.19,-22.457 -11.19,-35.071 0,-12.614 3.939,-24.861 11.19,-35.071 12.904,7.727 25.565,19.281 35.285,35.071 -8.298,13.917 -21.058,26.065 -35.285,35.071 z"
       id="path4"
       style="fill:#ececec"
       inkscape:connector-curvature="0" />
    <path
       d="M 470.412,164.071 C 454.225,131.983 430.554,103.424 401.943,81.471 400.179,80.117 401.295,73.695 401,71.859 414.23,66.06 423.5,52.845 423.5,37.5 423.5,16.822 406.677,0 386,0 H 126 c -20.678,0 -37.5,16.822 -37.5,37.5 0,15.346 9.27,28.561 22.5,34.359 -0.982,1.545 1.028,8.109 -0.955,9.63 -28.987,22.235 -52.878,51.227 -69.09,83.842 C 23.935,199.571 15.546,236.473 16.02,275.012 17.617,404.687 124.462,512 255.991,512 c 102.24,0 196.151,-67.815 228.097,-165.126 1.292,-3.936 -0.853,-8.173 -4.788,-9.464 -3.939,-1.292 -8.174,0.854 -9.464,4.789 C 439.953,433.34 352.068,497 255.992,497 132.146,497 32.534,398.056 31.018,274.828 30.574,238.691 38.436,204.098 54.386,172.008 69.587,141.428 91.99,114.243 119.178,93.387 123.45,90.106 126,84.926 126,79.53 V 75 h 27.253 c 4.143,0 7.5,-3.358 7.5,-7.5 0,-4.142 -3.357,-7.5 -7.5,-7.5 H 126 C 113.594,60 103.5,49.907 103.5,37.5 103.5,25.093 113.593,15 126,15 h 260 c 12.406,0 22.5,10.093 22.5,22.5 C 408.5,49.907 398.406,60 386,60 H 183.252 c -4.143,0 -7.5,3.358 -7.5,7.5 0,4.142 3.357,7.5 7.5,7.5 H 386 v 4.53 c 0,5.407 2.556,10.588 6.824,13.85 26.82,20.579 49.019,47.359 64.195,77.446 C 472.931,202.371 481,236.411 481,272 c 0,14.207 -1.333,28.425 -3.961,42.26 -0.773,4.069 1.899,7.995 5.969,8.768 3.971,0.754 7.987,-1.862 8.768,-5.968 C 494.579,302.304 496,287.144 496,272 c 0,-37.958 -8.61,-74.27 -25.588,-107.929 z"
       id="path6"
       style="fill:#ececec"
       inkscape:connector-curvature="0" />
    <path
       d="m 452.009,210.56 c -3.905,-2.257 -8.443,-2.818 -12.779,-1.584 -14.386,4.098 -28.331,6.137 -42.633,6.235 -27.623,0.2 -44.386,-6.922 -63.759,-15.158 l -2.513,-1.067 c -21.824,-9.25 -42.66,-16.99 -76.71,-18.021 -29.157,-0.877 -49.246,3.893 -66.618,9.181 -3.246,0.987 -6.393,1.991 -9.437,2.962 -19.562,6.242 -35.014,11.171 -59.237,6.993 -12.128,-2.091 -24.104,-6.148 -35.594,-12.056 -4.134,-2.125 -9.002,-2.394 -13.363,-0.733 -4.362,1.662 -7.824,5.106 -9.499,9.45 -9.518,24.69 -14.177,50.896 -13.848,77.893 C 46.703,330.44 68.814,382.623 108.28,421.59 147.746,460.545 200.207,482 256,482 h 0.456 c 56,-0.124 108.626,-22.023 148.183,-61.662 C 444.208,380.696 466,328.016 466,272 c 0,-17.415 -2.103,-34.635 -6.248,-51.183 -1.094,-4.362 -3.843,-8.005 -7.743,-10.257 z M 394.021,409.742 C 357.29,446.55 308.422,466.885 256.439,467 H 256 C 204.178,467 155.459,447.081 118.819,410.913 82.181,374.738 61.654,326.281 61.018,274.469 c -0.305,-25.081 4.017,-49.411 12.846,-72.313 0.339,-0.879 1.26,-1.157 2.007,-0.772 12.847,6.606 26.272,11.147 39.904,13.499 27.843,4.802 46.545,-1.167 66.347,-7.484 2.994,-0.956 6.092,-1.944 9.242,-2.902 16.151,-4.917 34.816,-9.361 61.798,-8.539 34.011,1.03 54.692,9.796 71.311,16.839 21.772,9.227 39.275,17.64 72.229,17.415 15.457,-0.106 31.148,-2.396 46.639,-6.809 0.896,-0.255 1.638,0.172 1.861,1.062 3.846,15.355 5.798,31.348 5.798,47.535 0,52.014 -20.236,100.932 -56.979,137.742 z"
       id="path8"
       style="fill:#ececec"
       inkscape:connector-curvature="0" />
    <path
       d="m 405.99,261.5 c -12.406,0 -22.5,10.093 -22.5,22.5 0,12.407 10.094,22.5 22.5,22.5 12.406,0 22.5,-10.093 22.5,-22.5 0,-12.407 -10.094,-22.5 -22.5,-22.5 z m 0,30 c -4.136,0 -7.5,-3.364 -7.5,-7.5 0,-4.136 3.364,-7.5 7.5,-7.5 4.136,0 7.5,3.364 7.5,7.5 0,4.136 -3.365,7.5 -7.5,7.5 z"
       id="path10"
       style="fill:#ececec"
       inkscape:connector-curvature="0" />
  </g>
</svg>
