<?xml version="1.0" encoding="UTF-8" standalone="no"?>
<svg
   xmlns:dc="http://purl.org/dc/elements/1.1/"
   xmlns:cc="http://creativecommons.org/ns#"
   xmlns:rdf="http://www.w3.org/1999/02/22-rdf-syntax-ns#"
   xmlns:svg="http://www.w3.org/2000/svg"
   xmlns="http://www.w3.org/2000/svg"
   xmlns:sodipodi="http://sodipodi.sourceforge.net/DTD/sodipodi-0.dtd"
   xmlns:inkscape="http://www.inkscape.org/namespaces/inkscape"
   enable-background="new 0 0 512 512"
   height="512px"
   id="Hamster"
   version="1.1"
   viewBox="0 0 512 512"
   width="512px"
   xml:space="preserve"
   sodipodi:docname="iconfinder_Hamster_3775251.svg"
   inkscape:version="0.92.4 (5da689c313, 2019-01-14)"><metadata
     id="metadata224"><rdf:RDF><cc:Work
         rdf:about=""><dc:format>image/svg+xml</dc:format><dc:type
           rdf:resource="http://purl.org/dc/dcmitype/StillImage" /></cc:Work></rdf:RDF></metadata><defs
     id="defs222" /><sodipodi:namedview
     pagecolor="#ffffff"
     bordercolor="#666666"
     borderopacity="1"
     objecttolerance="10"
     gridtolerance="10"
     guidetolerance="10"
     inkscape:pageopacity="0"
     inkscape:pageshadow="2"
     inkscape:window-width="1858"
     inkscape:window-height="1057"
     id="namedview220"
     showgrid="false"
     inkscape:zoom="0.921875"
     inkscape:cx="511.71621"
     inkscape:cy="215.6167"
     inkscape:window-x="54"
     inkscape:window-y="-8"
     inkscape:window-maximized="1"
     inkscape:current-layer="Hamster" /><g
     id="g217"><path
       d="M402.812,351.375l-0.052-0.404l-24.39-90.902c-5.617-20.938-6.21-43.215-1.713-64.421l0.052-0.275   c0.278-1.695,0.557-3.352,0.92-4.97c1.884-8.406,1.419-18.71-0.997-29.397l12.323-12.323c15.054-15.053,15.054-39.546,0-54.599   c-15.053-15.055-39.545-15.055-54.598,0l-1.561,1.561C311.623,80.391,285.085,72.054,256,72.054   c-28.676,0-54.875,8.104-75.898,22.948l-0.92-0.92c-15.051-15.053-39.545-15.053-54.6,0c-15.052,15.053-15.052,39.546,0.001,54.599   l11.069,11.07c-2.668,11.124-3.25,21.897-1.298,30.621c0.354,1.58,0.633,3.239,0.911,4.942l0.105,0.531   c4.467,21.171,3.862,43.406-1.748,64.302l-24.383,90.822l-0.052,0.404c-2.989,23.459,4.005,46.803,19.192,64.049   c13.047,14.814,30.434,23.393,49.302,24.416v0.098h3.506c0.109,0,0.218,0.008,0.328,0.008h148.966c0.109,0,0.218-0.008,0.328-0.008   h1.999v-0.055c19.447-0.639,37.417-9.252,50.81-24.461C398.806,398.178,405.801,374.832,402.812,351.375z M342.842,102.567   c10.375-10.373,27.254-10.373,37.629,0c10.374,10.375,10.374,27.255-0.001,37.63l-7.717,7.717   c-3.002-8.191-7.045-16.249-11.966-23.502c-5.355-7.894-11.599-14.978-18.581-21.209L342.842,102.567z M133.068,140.197   c-10.374-10.375-10.374-27.255-0.001-37.629c5.188-5.188,12.001-7.781,18.815-7.781c6.771,0,13.544,2.566,18.719,7.689   c-7.317,6.407-13.836,13.745-19.401,21.951c-4.692,6.918-8.585,14.566-11.539,22.362L133.068,140.197z M374.614,407.492   c-11.541,13.104-27.088,20.352-43.807,20.445h-25.629c-6.34,0-11.497-5.158-11.497-11.498s5.157-11.496,11.497-11.496h27.631v-12   h-27.631c-12.956,0-23.497,10.541-23.497,23.496c0,4.178,1.102,8.104,3.021,11.506h-58.915c1.92-3.402,3.021-7.328,3.021-11.506   c0-12.955-10.54-23.496-23.496-23.496h-27.632v12h27.632c6.339,0,11.496,5.156,11.496,11.496s-5.157,11.498-11.496,11.498H181.19   c-16.719-0.094-32.265-7.342-43.805-20.445c-12.823-14.563-18.769-34.299-16.343-54.205l1.401-5.221   c3.616,8.332,11.919,14.176,21.563,14.176c12.956,0,23.497-10.541,23.497-23.496v-27.633h-12v27.633   c0,6.338-5.157,11.496-11.497,11.496s-11.497-5.158-11.497-11.496v-27.633h-0.146l12.848-47.854   c6.098-22.712,6.754-46.879,1.901-69.883l-0.027-0.129c-0.301-1.84-0.607-3.646-1.021-5.495   c-1.054-4.709-1.146-10.862-0.169-17.757c0.761-5.378,2.172-11.206,4.29-17.162c2.575-7.237,6.188-14.657,10.945-21.67   c5.131-7.565,11.176-14.313,17.986-20.176c3.056-2.631,6.271-5.078,9.623-7.346c18.743-12.68,41.911-19.588,67.259-19.588   c25.76,0,49.27,7.137,68.171,20.214c3.323,2.3,6.505,4.78,9.529,7.44c6.471,5.691,12.236,12.188,17.157,19.44   c4.224,6.226,7.546,12.773,10.041,19.231c2.824,7.311,4.586,14.504,5.379,20.979c0.779,6.352,0.629,12.013-0.357,16.417   c-0.422,1.882-0.741,3.756-1.03,5.519c-1.104,5.229-1.908,10.52-2.443,15.837c-57.91-2.209-104.342-50-104.342-108.44v-6h-12v6   c0,28.534,9.974,54.779,26.609,75.447h-34.277l-4.995,9.324l15.075,22.655c-3.267,3.554-7.288,5.509-11.474,5.509   c-4.624,0-9.058-2.365-12.483-6.661l-3.74-4.69l-9.382,7.481l3.741,4.691c5.624,7.053,13.18,10.994,21.323,11.162v14.581h38.995   v-14.61c0.513,0.03,1.028,0.046,1.546,0.046c8.351,0,16.115-3.97,21.864-11.179l3.741-4.691l-9.382-7.481l-3.74,4.69   c-3.426,4.296-7.859,6.661-12.483,6.661s-9.058-2.365-12.483-6.661l-0.17-0.213l14.167-21.29l-3.45-6.439   c21.127,24.65,52.016,40.694,86.614,42.089c-0.294,14.168,1.388,28.38,5.06,42.065l12.861,47.936h-0.152v27.633   c0,6.338-5.158,11.496-11.498,11.496s-11.497-5.158-11.497-11.496v-27.633h-12v27.633c0,12.955,10.542,23.496,23.497,23.496   c9.646,0,17.949-5.844,21.564-14.176l1.401,5.221C393.383,373.193,387.438,392.93,374.614,407.492z M257.043,216.585   c1.976,2.095,4.141,3.851,6.454,5.238v6.368h-14.995v-5.237C251.604,221.44,254.484,219.299,257.043,216.585z M249.636,188.139   h12.726L256,197.702L249.636,188.139z"
       id="path211" /><rect
       height="13.987"
       width="12"
       x="210"
       y="158.1"
       id="rect213" /><rect
       height="13.987"
       width="12"
       x="289.999"
       y="158.1"
       id="rect215" /></g><path
     style="fill:#f2f2f2;stroke-width:1.08474576"
     d="m 164.87569,437.42044 c -11.216,-2.71545 -23.08156,-9.73972 -32.81308,-19.42497 -7.18514,-7.15098 -9.69594,-10.60395 -13.82936,-19.01879 -6.86151,-13.96872 -8.72474,-21.73128 -8.71671,-36.31541 0.007,-11.83857 0.10612,-12.29822 12.69214,-58.57627 6.97706,-25.65424 13.48335,-50.79322 14.45844,-55.86441 2.58127,-13.42463 2.34259,-35.31718 -0.55824,-51.20332 -2.60266,-14.25326 -2.85221,-20.94165 -1.14677,-30.73504 l 1.17133,-6.72625 -7.84652,-8.00668 c -10.12773,-10.33447 -13.2988,-16.89996 -13.82164,-28.61685 -0.30843,-6.91209 0.0889,-9.94645 1.9525,-14.91163 3.06431,-8.164129 10.99482,-16.804028 19.17715,-20.892555 5.55638,-2.776397 7.52656,-3.168759 16.09416,-3.20517 10.80669,-0.04593 16.52584,1.852284 24.42113,8.105465 l 4.18085,3.311295 5.34102,-3.286365 c 40.87794,-25.152446 97.74238,-25.849407 137.74093,-1.688224 l 9.46861,5.719534 3.74712,-3.280051 c 2.06091,-1.804027 6.45413,-4.549747 9.76271,-6.101597 5.00127,-2.345789 7.5703,-2.821546 15.23594,-2.821546 7.69569,0 10.2284,0.47267 15.31662,2.858484 8.25322,3.869852 14.0085,9.325387 18.41995,17.4606 3.45753,6.3761 3.68708,7.44134 3.68597,17.10464 -10e-4,9.17691 -0.3395,10.97284 -3.09155,16.40451 -1.84141,3.63436 -6.48852,9.47763 -11.49857,14.45829 l -8.40818,8.35888 0.87623,4.52475 c 1.50894,7.79199 1.05349,20.63857 -1.19878,33.8129 -2.56365,14.9958 -2.82705,33.88195 -0.65808,47.18644 0.82674,5.07118 7.47433,31.43051 14.77244,58.57627 l 13.26929,49.35593 -0.55887,11.9322 c -1.01487,21.66795 -7.97742,37.28927 -23.46124,52.63817 -10.38232,10.29185 -20.18435,15.9636 -32.65167,18.89326 -10.08749,2.37042 -171.72239,2.34683 -181.52527,-0.0265 z m 47.98142,-11.90931 c 6.16161,-5.18465 5.43993,-14.85838 -1.42056,-19.0419 -2.8397,-1.73165 -5.5774,-2.03774 -18.25593,-2.04119 l -14.91526,-0.004 v -5.42373 -5.42373 l 16,0.0239 c 18.19639,0.0271 22.21658,1.15003 28.09787,7.84845 5.65244,6.43777 7.06948,14.81495 4.12721,24.39891 l -0.74929,2.44064 h 29.54116 29.54117 l -0.74929,-2.44068 c -2.94228,-9.58396 -1.52523,-17.96115 4.12721,-24.39892 5.88128,-6.69841 9.90147,-7.82135 28.09786,-7.84845 l 16,-0.0238 v 5.34557 5.34559 l -16.24958,0.34933 c -16.11017,0.34635 -16.27534,0.37514 -19.25423,3.35705 -2.4908,2.49332 -3.00466,3.94627 -3.00466,8.49576 0,4.82778 0.4262,5.86887 3.54254,8.65331 l 3.54253,3.16526 18.15238,-0.0161 c 12.34745,-0.011 20.37488,-0.53991 25.10227,-1.65424 28.23213,-6.65478 49.12867,-36.30412 47.57752,-67.506 -0.54317,-10.92618 -1.80705,-12.74206 -5.12834,-7.36811 -1.32079,2.13708 -4.60994,5.17988 -7.30922,6.76177 -10.18936,5.97135 -23.07862,2.95246 -30.10949,-7.05217 l -3.3024,-4.69917 -0.34419,-17.80929 -0.34419,-17.80928 h 5.49674 5.49673 v 15.24031 c 0,20.38491 1.76934,23.85241 12.13208,23.77605 4.99661,-0.0369 6.94263,-1.09205 9.8838,-5.35942 1.53386,-2.2255 1.84853,-5.36757 1.84853,-18.45869 v -15.77668 l -6.9983,-26.01587 c -8.14143,-30.26537 -10.35764,-41.8722 -10.35764,-54.24529 0,-9.87792 -0.28039,-10.27905 -7.1853,-10.27905 -2.06449,0 -7.51609,-0.7728 -12.11467,-1.71732 -23.15843,-4.75662 -42.65659,-15.03867 -60.07386,-31.67903 -8.03567,-7.67724 -10.53452,-9.05536 -6.8304,-3.767 1.57204,2.24442 1.27123,2.95438 -5.66744,13.37587 l -7.32761,11.00565 2.95736,2.5438 c 6.99231,6.01453 15.91978,5.30126 22.70694,-1.81417 2.21339,-2.32044 4.41,-4.19915 4.88136,-4.1749 0.47136,0.0243 2.50794,1.456 4.52574,3.18168 l 3.66872,3.13759 -5.94899,5.94901 c -5.74368,5.74366 -13.30012,9.38255 -19.48364,9.38255 -1.70467,0 -1.97261,0.95774 -1.97261,7.05085 v 7.05084 h -18.98305 -18.98306 v -6.873 -6.873 l -6.64354,-1.84708 c -5.49457,-1.52761 -7.65868,-2.88682 -12.51308,-7.859 l -5.86952,-6.01193 3.98426,-3.1663 c 2.19135,-1.74146 4.21833,-3.1663 4.50443,-3.1663 0.28608,0 2.38441,1.921 4.66295,4.26888 6.63634,6.8383 15.10863,7.74425 21.79435,2.33048 l 2.50023,-2.02456 -7.29478,-10.95636 c -4.01213,-6.02599 -7.29296,-11.57058 -7.29073,-12.32129 0.002,-0.75072 0.97132,-2.95138 2.15355,-4.89037 l 2.14948,-3.52542 h 16.82951 c 9.25623,0 16.8295,-0.23933 16.8295,-0.53184 0,-0.2925 -2.22915,-3.78784 -4.95367,-7.76742 -12.64756,-18.47364 -19.40635,-38.63796 -20.76078,-61.93803 l -0.64632,-11.118644 h 5.58717 5.58716 l 0.007,5.694914 c 0.0228,20.29659 7.50327,43.83799 19.59377,61.66243 17.23758,25.41257 47.90128,43.62612 77.75577,46.18519 4.32542,0.37076 7.87974,0.48045 7.8985,0.24376 0.0186,-0.2367 0.97956,-5.79985 2.13528,-12.36256 2.5773,-14.63512 2.69394,-23.29983 0.44666,-33.18036 -7.74482,-34.05142 -34.06045,-62.16758 -68.78564,-73.492021 -58.01639,-18.920079 -119.90348,4.530413 -143.12099,54.231951 -8.51233,18.22227 -10.07281,30.26975 -6.52111,50.34549 2.85746,16.15162 3.39643,39.28918 1.22378,52.53561 -0.73391,4.47458 -4.73833,20.86912 -8.89871,36.43232 -7.47955,27.97959 -7.56432,28.45106 -7.56432,42.06874 0,19.48721 2.63945,24.54979 12.79938,24.54979 3.77431,0 5.36057,-0.63714 7.89423,-3.1708 l 3.17079,-3.17079 v -16.35463 -16.35463 h 5.9661 5.96611 v 14.16372 c 0,18.40452 -1.16069,22.89689 -7.57243,29.30862 -10.01294,10.01295 -23.29773,9.51228 -32.96716,-1.24246 l -4.94138,-5.49601 -0.85274,3.0568 c -0.469,1.68124 -0.77619,7.69408 -0.68262,13.36188 0.48891,29.61756 20.47396,55.8775 47.5587,62.49111 3.0629,0.7479 13.29628,1.36454 23.50999,1.41663 17.88477,0.0912 18.12304,0.0613 21.38684,-2.685 z m 51.10317,-200.40858 c 0,-2.747 -0.77868,-4.16832 -3.30824,-6.0385 -3.69204,-2.72964 -3.31534,-2.77007 -8.88172,0.95315 -3.03196,2.028 -4.05775,3.46411 -4.0678,5.69491 l -0.0134,2.98306 h 8.1356 8.13559 z m -4.3911,-31.58589 c 1.81849,-2.64308 3.30635,-5.08375 3.30635,-5.42372 0,-0.33996 -2.92881,-0.61811 -6.50847,-0.61811 -3.70689,0 -6.50848,0.47694 -6.50848,1.108 0,1.08869 5.38095,9.73945 6.05815,9.73945 0.19036,0 1.83397,-2.16252 3.65245,-4.80562 z M 385.2672,134.32228 c 2.44744,-4.1246 2.89647,-6.1426 2.89647,-13.01695 0,-6.93767 -0.44279,-8.88886 -3.00724,-13.25137 -4.79721,-8.160839 -14.24788,-13.86727 -22.96616,-13.86727 -5.15543,0 -13.72966,2.870192 -17.3824,5.81869 l -3.22021,2.59936 6.15664,6.64991 c 8.74986,9.4509 15.22877,18.88678 20.47433,29.81881 l 4.54745,9.47715 4.80232,-4.67349 c 2.64128,-2.57041 6.10573,-6.87009 7.6988,-9.55484 z M 152.99681,122.98475 c 2.50908,-3.53364 7.57887,-9.49825 11.26621,-13.25468 7.5498,-7.69128 7.52068,-8.33618 -0.56916,-12.607395 -6.20246,-3.274736 -17.84431,-3.254504 -24.09161,0.04187 -8.9426,4.718545 -14.48943,13.960095 -14.48943,24.140785 0,7.77074 2.2445,12.97431 8.5201,19.75271 l 5.89768,6.37019 4.45213,-9.00933 c 2.44867,-4.95514 6.50501,-11.9005 9.01408,-15.43415 z"
     id="path226"
     inkscape:connector-curvature="0" /><path
     style="fill:#f2f2f2;stroke-width:1.08474576"
     d="m 289.99418,164.69517 v -6.50848 h 5.9661 5.9661 v 6.50848 6.50847 h -5.9661 -5.9661 z"
     id="path228"
     inkscape:connector-curvature="0" /><path
     style="fill:#f2f2f2;stroke-width:1.08474576"
     d="m 210.80774,164.69517 v -6.50848 h 5.42373 5.42372 v 6.50848 6.50847 h -5.42372 -5.42373 z"
     id="path230"
     inkscape:connector-curvature="0" /></svg>