<?xml version="1.0" encoding="UTF-8" standalone="no"?>
<svg
   xmlns:dc="http://purl.org/dc/elements/1.1/"
   xmlns:cc="http://creativecommons.org/ns#"
   xmlns:rdf="http://www.w3.org/1999/02/22-rdf-syntax-ns#"
   xmlns:svg="http://www.w3.org/2000/svg"
   xmlns="http://www.w3.org/2000/svg"
   xmlns:sodipodi="http://sodipodi.sourceforge.net/DTD/sodipodi-0.dtd"
   xmlns:inkscape="http://www.inkscape.org/namespaces/inkscape"
   enable-background="new 0 0 26 26"
   id="Слой_1"
   version="1.1"
   viewBox="0 0 26 26"
   xml:space="preserve"
   sodipodi:docname="iconfinder_00-ELASTOFONT-STORE-READY_user-circle_2703062.svg"
   inkscape:version="0.92.4 (5da689c313, 2019-01-14)"><metadata
     id="metadata3729"><rdf:RDF><cc:Work
         rdf:about=""><dc:format>image/svg+xml</dc:format><dc:type
           rdf:resource="http://purl.org/dc/dcmitype/StillImage" /></cc:Work></rdf:RDF></metadata><defs
     id="defs3727" /><sodipodi:namedview
     pagecolor="#ffffff"
     bordercolor="#666666"
     borderopacity="1"
     objecttolerance="10"
     gridtolerance="10"
     guidetolerance="10"
     inkscape:pageopacity="0"
     inkscape:pageshadow="2"
     inkscape:window-width="1538"
     inkscape:window-height="1177"
     id="namedview3725"
     showgrid="false"
     inkscape:zoom="38.769231"
     inkscape:cx="13"
     inkscape:cy="14.031746"
     inkscape:window-x="54"
     inkscape:window-y="-8"
     inkscape:window-maximized="1"
     inkscape:current-layer="Слой_1" /><path
     d="M25,13c0-6.6166992-5.3828125-12-12-12S1,6.3833008,1,13c0,3.383606,1.413208,6.4386597,3.673645,8.6222534  c0.0529175,0.0689087,0.1156006,0.1247559,0.1889648,0.171814C7.0038452,23.7769165,9.8582764,25,13,25  s5.9961548-1.2230835,8.1373901-3.2059326c0.0733643-0.0470581,0.1360474-0.1029053,0.1889648-0.171814  C23.586792,19.4386597,25,16.383606,25,13z M13,2.5c5.7900391,0,10.5,4.7104492,10.5,10.5  c0,2.4549561-0.8532715,4.7108154-2.2702637,6.5008545c-0.6505127-2.0978394-2.5076294-3.7401123-5.0281372-4.4957886  c1.3735962-0.9940796,2.2720337-2.6046143,2.2720337-4.4244995c0-3.0141602-2.4550781-5.4663086-5.4736328-5.4663086  s-5.4736328,2.4521484-5.4736328,5.4663086c0,1.8198853,0.8984375,3.4304199,2.2720337,4.4244995  c-2.5205078,0.7556763-4.3776245,2.3979492-5.0281372,4.4957886C3.3532715,17.7108154,2.5,15.4549561,2.5,13  C2.5,7.2104492,7.2099609,2.5,13,2.5z M9.0263672,10.5805664c0-2.1870117,1.7822266-3.9663086,3.9736328-3.9663086  s3.9736328,1.7792969,3.9736328,3.9663086S15.1914063,14.546875,13,14.546875S9.0263672,12.7675781,9.0263672,10.5805664z   M6.0307617,20.8319702C6.2562256,18.0820313,9.1723633,16.046875,13,16.046875s6.7437744,2.0351563,6.9692383,4.7850952  C18.1130981,22.4855347,15.6757202,23.5,13,23.5S7.8869019,22.4855347,6.0307617,20.8319702z"
     fill="#1D1D1B"
     id="path3722" /><path
     style="fill:#ececec;stroke-width:0.02579365"
     d="M 12.254563,24.967867 C 11.519896,24.911677 10.82101,24.803282 10.178175,24.645826 6.1805436,23.666647 2.9249948,20.667775 1.6265658,16.768452 1.3580301,15.962011 1.1955223,15.227599 1.0814975,14.305159 1.0237194,13.837744 1.0151237,12.304519 1.0675429,11.816071 1.3676367,9.0197704 2.5600104,6.5085209 4.5236727,4.5371416 6.4779108,2.5752238 9.0149225,1.3681569 11.816071,1.0675429 c 0.480975,-0.051617 2.017996,-0.043338 2.49423,0.013436 1.827131,0.2178189 3.488554,0.7934217 5.000955,1.7325898 1.430583,0.8883603 2.719777,2.1360062 3.651945,3.5342491 1.179074,1.7685999 1.839231,3.7044022 1.996756,5.8551582 0.03723,0.508312 0.01693,1.559111 -0.04007,2.073544 -0.363834,3.284137 -2.035601,6.233416 -4.67843,8.253539 -0.294949,0.225453 -1.03683,0.718405 -1.342399,0.891974 -0.382794,0.217435 -1.138303,0.578216 -1.536858,0.733904 -1.037373,0.405227 -1.991565,0.640833 -3.103607,0.766333 -0.33415,0.03771 -1.700639,0.0688 -2.004033,0.0456 z m 1.444445,-1.480828 c 1.730187,-0.125736 3.305578,-0.630252 4.771825,-1.528166 0.485307,-0.297197 0.841378,-0.558421 1.451378,-1.064772 0.06331,-0.05255 0.06355,-0.05444 0.03462,-0.270833 -0.24325,-1.819624 -1.685728,-3.344799 -3.871915,-4.093889 -0.645063,-0.221029 -1.348604,-0.371993 -2.089286,-0.448313 -0.419699,-0.04325 -1.573614,-0.0435 -1.986111,-4.36e-4 -2.003439,0.209151 -3.6381407,0.927744 -4.7477929,2.087066 -0.3358307,0.350863 -0.5681162,0.674789 -0.7815228,1.089845 -0.2435695,0.47372 -0.3974062,0.965929 -0.4436016,1.419328 l -0.017151,0.168337 0.2286653,0.190934 c 2.1095242,1.761436 4.792786,2.64407 7.450887,2.450899 z M 5.1202945,18.677183 c 0.7342968,-1.49388 2.1078185,-2.68034 3.9358563,-3.399828 0.1986111,-0.07817 0.4452629,-0.167524 0.5481151,-0.198563 0.1028522,-0.03104 0.1870039,-0.0648 0.1870039,-0.07503 0,-0.01023 -0.090455,-0.08985 -0.2010112,-0.176931 C 9.3358301,14.62642 8.8392989,14.119173 8.6503837,13.866667 7.9183446,12.888215 7.5476826,11.791537 7.5473411,10.603093 7.5472638,10.375737 7.5591273,10.091362 7.5736777,9.9711488 7.6971091,8.9513909 8.1076329,7.9627169 8.7300994,7.1861111 8.9113896,6.9599287 9.3238309,6.5435982 9.5516956,6.3567673 10.637057,5.466858 12.111898,5.0154843 13.494627,5.1500372 c 2.900158,0.2822127 5.061633,2.7398165 4.955365,5.6342648 -0.0298,0.811648 -0.202505,1.489935 -0.563077,2.21144 -0.347484,0.695316 -0.852588,1.324195 -1.46057,1.81848 l -0.238933,0.194251 0.355004,0.121437 c 0.48095,0.164519 0.745824,0.27729 1.226618,0.522238 1.623205,0.826967 2.813439,2.101975 3.36211,3.601572 l 0.0977,0.267013 0.05962,-0.07356 c 0.161563,-0.19934 0.532766,-0.74241 0.724238,-1.059562 1.513314,-2.506635 1.902077,-5.583367 1.060124,-8.389991 C 21.938007,6.2147496 18.768597,3.3704801 14.898413,2.6617985 14.199774,2.5338686 13.85912,2.5058463 13.002579,2.5058463 c -0.85782,0 -1.201276,0.028332 -1.895833,0.1563919 C 9.007927,3.0492093 7.1144442,4.0414103 5.5992463,5.5482143 3.8810884,7.2568541 2.8547153,9.3722958 2.5519411,11.828968 c -0.065169,0.528776 -0.065169,1.818447 0,2.347222 0.1523017,1.235758 0.4583964,2.283652 0.9849819,3.372019 0.3128676,0.646647 0.6720256,1.236791 1.0777997,1.770967 l 0.1545847,0.203501 0.086744,-0.242192 c 0.047709,-0.133205 0.1666187,-0.404691 0.2642431,-0.603302 z m 8.5658165,-4.179744 c 0.500225,-0.08498 1.091899,-0.323065 1.534722,-0.617548 1.650724,-1.09775 2.233575,-3.281145 1.349655,-5.0558831 C 15.678907,7.0338888 13.631936,6.1822632 11.734969,6.8122296 10.374248,7.2641137 9.366995,8.4182191 9.0778972,9.8566898 c -0.070698,0.3517742 -0.064345,1.1447062 0.012009,1.4989072 0.3734199,1.732266 1.7449578,2.980921 3.4961558,3.182916 0.255073,0.02942 0.806243,0.0088 1.100049,-0.04107 z"
     id="path3731"
     inkscape:connector-curvature="0" /></svg>