<?xml version="1.0" encoding="UTF-8" standalone="no"?>
<svg
   xmlns:dc="http://purl.org/dc/elements/1.1/"
   xmlns:cc="http://creativecommons.org/ns#"
   xmlns:rdf="http://www.w3.org/1999/02/22-rdf-syntax-ns#"
   xmlns:svg="http://www.w3.org/2000/svg"
   xmlns="http://www.w3.org/2000/svg"
   xmlns:sodipodi="http://sodipodi.sourceforge.net/DTD/sodipodi-0.dtd"
   xmlns:inkscape="http://www.inkscape.org/namespaces/inkscape"
   id="Layer_1"
   style="enable-background:new 0 0 30 30;"
   version="1.1"
   viewBox="0 0 30 30"
   xml:space="preserve"
   sodipodi:docname="services.svg"
   inkscape:version="0.92.4 (5da689c313, 2019-01-14)"><metadata
     id="metadata144"><rdf:RDF><cc:Work
         rdf:about=""><dc:format>image/svg+xml</dc:format><dc:type
           rdf:resource="http://purl.org/dc/dcmitype/StillImage" /></cc:Work></rdf:RDF></metadata><defs
     id="defs142" /><sodipodi:namedview
     pagecolor="#ffffff"
     bordercolor="#666666"
     borderopacity="1"
     objecttolerance="10"
     gridtolerance="10"
     guidetolerance="10"
     inkscape:pageopacity="0"
     inkscape:pageshadow="2"
     inkscape:window-width="640"
     inkscape:window-height="674"
     id="namedview140"
     showgrid="false"
     inkscape:zoom="7.8666667"
     inkscape:cx="15"
     inkscape:cy="15"
     inkscape:window-x="413"
     inkscape:window-y="157"
     inkscape:window-maximized="0"
     inkscape:current-layer="Layer_1" /><circle
     cx="20"
     cy="10"
     r="1"
     id="circle131" /><g
     id="g135"><path
       d="M13,19c0,1.105-0.895,2-2,2s-2-0.895-2-2s0.895-2,2-2S13,17.895,13,19z M22,18.665v0.67c0,0.241-0.171,0.447-0.408,0.491   l-0.988,0.185c-0.411,0.077-0.714,0.406-0.797,0.816c-0.069,0.341-0.157,0.676-0.264,1.002c-0.13,0.396-0.032,0.829,0.284,1.1   l0.759,0.651c0.183,0.157,0.228,0.421,0.107,0.63l-0.335,0.58c-0.12,0.208-0.372,0.302-0.599,0.222l-0.953-0.335   c-0.393-0.138-0.818-0.006-1.096,0.305c-0.229,0.257-0.473,0.5-0.73,0.73c-0.311,0.278-0.443,0.702-0.305,1.096l0.335,0.953   c0.08,0.227-0.013,0.479-0.222,0.599l-0.58,0.335c-0.208,0.12-0.473,0.075-0.63-0.107l-0.651-0.759   c-0.271-0.316-0.704-0.414-1.1-0.284c-0.326,0.107-0.66,0.195-1.002,0.264c-0.41,0.083-0.739,0.386-0.816,0.797l-0.185,0.988   C11.782,29.829,11.576,30,11.335,30h-0.67c-0.241,0-0.447-0.171-0.491-0.408l-0.185-0.988c-0.077-0.411-0.406-0.714-0.816-0.797   c-0.341-0.069-0.676-0.157-1.002-0.264c-0.396-0.13-0.829-0.032-1.1,0.284L6.42,28.586c-0.157,0.183-0.421,0.228-0.63,0.107   l-0.58-0.335c-0.208-0.12-0.302-0.372-0.222-0.599l0.335-0.953c0.138-0.394,0.006-0.818-0.305-1.096   c-0.257-0.229-0.5-0.473-0.73-0.73c-0.278-0.311-0.702-0.443-1.096-0.305L2.24,25.012c-0.227,0.08-0.479-0.013-0.599-0.222   l-0.335-0.58c-0.12-0.208-0.075-0.473,0.107-0.63l0.759-0.651c0.316-0.271,0.414-0.704,0.284-1.1   c-0.107-0.326-0.195-0.66-0.264-1.002c-0.083-0.41-0.386-0.739-0.797-0.816l-0.988-0.185C0.171,19.782,0,19.576,0,19.335v-0.67   c0-0.241,0.171-0.447,0.408-0.491l0.988-0.185c0.411-0.077,0.714-0.406,0.797-0.816c0.069-0.341,0.157-0.676,0.264-1.002   c0.13-0.396,0.032-0.829-0.284-1.1L1.414,14.42c-0.183-0.157-0.228-0.421-0.107-0.63l0.335-0.58   c0.12-0.208,0.372-0.302,0.599-0.222l0.953,0.335c0.394,0.138,0.818,0.006,1.096-0.305c0.229-0.257,0.473-0.5,0.73-0.73   c0.311-0.278,0.443-0.702,0.305-1.096L4.988,10.24c-0.08-0.227,0.013-0.479,0.222-0.599l0.58-0.335   c0.208-0.12,0.473-0.075,0.63,0.107l0.651,0.759c0.271,0.316,0.704,0.414,1.1,0.284c0.326-0.107,0.661-0.195,1.002-0.264   c0.41-0.083,0.739-0.386,0.816-0.797l0.185-0.988C10.218,8.171,10.424,8,10.665,8h0.67c0.241,0,0.447,0.171,0.491,0.408   l0.185,0.988c0.077,0.411,0.406,0.714,0.816,0.797c0.341,0.069,0.676,0.157,1.002,0.264c0.396,0.13,0.829,0.032,1.1-0.284   l0.651-0.759c0.157-0.183,0.421-0.228,0.63-0.107l0.58,0.335c0.208,0.12,0.302,0.372,0.222,0.599l-0.335,0.952   c-0.138,0.394-0.006,0.818,0.305,1.096c0.257,0.229,0.5,0.473,0.73,0.73c0.278,0.311,0.702,0.443,1.096,0.305l0.953-0.335   c0.227-0.08,0.479,0.013,0.599,0.222l0.335,0.58c0.12,0.208,0.075,0.473-0.107,0.63l-0.759,0.651   c-0.316,0.271-0.414,0.704-0.284,1.1c0.107,0.326,0.195,0.661,0.264,1.002c0.083,0.41,0.386,0.739,0.797,0.816l0.988,0.185   C21.829,18.218,22,18.424,22,18.665z M17,19c0-3.314-2.686-6-6-6s-6,2.686-6,6s2.686,6,6,6S17,22.314,17,19z"
       id="path133" /></g><path
     d="M29.592,9.174l-1.176-0.221c-0.305-0.057-0.533-0.299-0.596-0.604c-0.059-0.284-0.133-0.563-0.221-0.835  c-0.096-0.295-0.02-0.616,0.215-0.818L28.72,5.92c0.183-0.157,0.228-0.421,0.107-0.63l-0.335-0.58  c-0.12-0.208-0.372-0.302-0.599-0.222l-1.128,0.397c-0.292,0.103-0.609,0.008-0.816-0.223c-0.193-0.215-0.397-0.419-0.612-0.612  c-0.231-0.207-0.326-0.524-0.223-0.816l0.397-1.128c0.08-0.227-0.013-0.479-0.222-0.599l-0.58-0.335  c-0.208-0.12-0.473-0.075-0.63,0.107l-0.777,0.906c-0.202,0.235-0.523,0.311-0.818,0.215c-0.272-0.088-0.551-0.162-0.835-0.221  c-0.304-0.063-0.546-0.291-0.604-0.596l-0.221-1.176C20.782,0.171,20.576,0,20.335,0h-0.67c-0.241,0-0.447,0.171-0.491,0.408  l-0.221,1.176c-0.057,0.305-0.299,0.533-0.604,0.596c-0.284,0.059-0.563,0.133-0.835,0.221c-0.295,0.096-0.616,0.02-0.818-0.215  L15.92,1.28c-0.157-0.183-0.421-0.228-0.63-0.107l-0.58,0.335c-0.208,0.12-0.302,0.372-0.222,0.599l0.397,1.128  c0.103,0.292,0.008,0.609-0.223,0.816c-0.215,0.193-0.419,0.397-0.612,0.612c-0.207,0.231-0.524,0.326-0.816,0.223l-1.128-0.397  c-0.227-0.08-0.479,0.013-0.599,0.222l-0.335,0.58c-0.12,0.208-0.075,0.473,0.107,0.63l0.098,0.084  c1.183,0.02,2.195,0.867,2.414,2.034l0.06,0.318l0.209-0.245c0.459-0.534,1.103-0.826,1.767-0.861C16.723,5.896,18.255,5,20,5  c2.761,0,5,2.239,5,5c0,1.745-0.896,3.277-2.251,4.171c-0.035,0.664-0.326,1.308-0.86,1.766l-0.246,0.21l0.318,0.06  c1.167,0.219,2.014,1.231,2.034,2.414l0.084,0.098c0.157,0.183,0.421,0.228,0.63,0.107l0.58-0.335  c0.208-0.12,0.302-0.372,0.222-0.599l-0.397-1.128c-0.103-0.292-0.008-0.609,0.223-0.816c0.215-0.193,0.419-0.397,0.612-0.612  c0.207-0.231,0.524-0.326,0.816-0.223l1.128,0.397c0.227,0.08,0.479-0.013,0.599-0.222l0.335-0.58  c0.12-0.208,0.075-0.473-0.107-0.63l-0.906-0.777c-0.235-0.202-0.311-0.523-0.215-0.818c0.088-0.272,0.162-0.551,0.221-0.835  c0.063-0.304,0.291-0.546,0.596-0.604l1.176-0.221C29.829,10.782,30,10.576,30,10.335v-0.67C30,9.424,29.829,9.218,29.592,9.174z"
     id="path137" /><path
     style="fill:#f2f2f2;stroke-width:0.12711865"
     d="m 10.472509,29.821815 c -0.185367,-0.133519 -0.295636,-0.394439 -0.354625,-0.839112 -0.1291678,-0.973718 -0.5764538,-1.284049 -2.1376417,-1.48311 -0.5964605,-0.07605 -0.60428,-0.0722 -1.2333535,0.60812 L 6.1138014,28.792373 5.6481217,28.541976 C 5.0618799,28.226751 5.0031028,28.06705 5.2067297,27.342686 5.5305791,26.190653 5.544174,26.249418 4.764764,25.432288 4.3637956,25.011914 3.9273956,24.633587 3.7949863,24.591563 3.6625768,24.549538 3.2707037,24.609329 2.9241569,24.724434 2.0720558,25.007457 1.8026649,24.941854 1.4795574,24.372638 L 1.2076271,23.893581 1.8922864,23.256802 C 2.5722819,22.624361 2.5764242,22.615935 2.5004075,22.019757 2.3011053,20.456688 1.9913888,20.011333 1.0134546,19.881606 0.22184696,19.776595 -0.07300218,19.433229 0.05276456,18.762834 0.14248309,18.284593 0.21477728,18.237587 1.0541531,18.111714 1.9873607,17.971771 2.3074694,17.501875 2.5004075,15.988717 2.5762819,15.393656 2.571151,15.383095 1.9086756,14.770811 1.1732326,14.091087 1.1486016,13.908254 1.7107561,13.301679 l 0.304315,-0.328361 0.7241428,0.249141 c 0.3982785,0.137028 0.8564703,0.21593 1.0182041,0.175337 0.3993858,-0.100239 1.7086837,-1.493295 1.7086837,-1.81799 0,-0.143606 -0.090334,-0.48687 -0.2007432,-0.762808 C 4.9834187,10.112361 5.0669638,9.8060856 5.6278705,9.488032 L 6.1074357,9.2161017 6.7535095,9.8995998 C 7.3916306,10.574685 7.4068513,10.58217 7.9900458,10.507721 9.5183584,10.31262 9.9917486,9.9766304 10.122027,8.9945414 c 0.09949,-0.7499974 0.308668,-0.9860668 0.873736,-0.9860668 0.565856,0 0.783746,0.2456235 0.887574,1.0005465 0.135146,0.9826271 0.590929,1.3038809 2.127946,1.4998609 0.595061,0.07587 0.605622,0.07074 1.217906,-0.5917318 0.679723,-0.735443 0.862557,-0.760074 1.469131,-0.1979195 l 0.328362,0.3043153 -0.249141,0.724143 c -0.137028,0.398278 -0.217085,0.851868 -0.177904,1.007978 0.08599,0.342612 1.282308,1.533685 1.650366,1.64313 0.144493,0.04297 0.592055,-0.03519 0.994583,-0.17368 l 0.731869,-0.251799 0.304314,0.328361 c 0.559597,0.603814 0.536398,0.79045 -0.180633,1.453155 -0.727661,0.672533 -0.762468,0.821693 -0.46143,1.977455 0.248497,0.954048 0.562658,1.275774 1.35175,1.384302 0.751889,0.103411 1.001069,0.321715 1.001069,0.877024 0,0.540958 -0.295479,0.792194 -1.065708,0.906136 -0.341436,0.05051 -0.723845,0.194887 -0.849797,0.320839 -0.257942,0.257943 -0.472012,0.914137 -0.583741,1.789364 -0.07448,0.583482 -0.0673,0.598056 0.608121,1.232789 l 0.683498,0.642326 -0.250397,0.466245 c -0.315147,0.586808 -0.474762,0.645629 -1.199289,0.441956 -1.151385,-0.323667 -1.093978,-0.336768 -1.902144,0.434092 -0.415833,0.396637 -0.789272,0.853486 -0.829865,1.015221 -0.04059,0.161733 0.03831,0.619924 0.175338,1.018203 l 0.249141,0.724143 -0.328362,0.304315 c -0.606574,0.562154 -0.789408,0.537523 -1.469131,-0.19792 -0.612284,-0.662475 -0.622845,-0.667606 -1.217906,-0.591731 -1.524569,0.194392 -1.993015,0.518795 -2.123957,1.470858 -0.04514,0.328235 -0.125834,0.667588 -0.179311,0.754116 -0.157965,0.255592 -0.931182,0.316453 -1.235506,0.09725 z m 2.044233,-4.974304 c 1.066583,-0.277808 1.932733,-0.778979 2.738024,-1.58427 2.373652,-2.373652 2.377931,-6.159357 0.0096,-8.527648 -2.36829,-2.368291 -6.1539956,-2.364011 -8.5276474,0.0096 -2.3797683,2.379768 -2.3797683,6.138238 0,8.518007 1.5309937,1.530994 3.7009874,2.125781 5.7799824,1.58427 z"
     id="path146"
     inkscape:connector-curvature="0" /><path
     style="fill:#f2f2f2;stroke-width:0.12711865"
     d="M 10.203897,20.724938 C 9.2368794,20.285963 8.8278869,19.233229 9.2519313,18.274607 9.8831556,16.847619 11.606092,16.64912 12.555602,17.893991 c 0.265037,0.347481 0.33786,0.584597 0.33786,1.10008 0,0.81626 -0.376672,1.399615 -1.122411,1.738289 -0.65563,0.297751 -0.897411,0.296606 -1.567154,-0.0074 z"
     id="path148"
     inkscape:connector-curvature="0" /><path
     style="fill:#f2f2f2;stroke-width:0.12711865"
     d="m 19.379815,10.620185 c -0.500687,-0.500688 -0.356544,-1.2332271 0.291118,-1.4794679 0.728131,-0.2768349 1.465185,0.4602185 1.18835,1.1883499 -0.246241,0.647662 -0.97878,0.791805 -1.479468,0.291118 z"
     id="path150"
     inkscape:connector-curvature="0" /><path
     style="fill:#f2f2f2;stroke-width:0.12711865"
     d="m 24.184322,18.729371 c -0.08739,-0.03526 -0.158898,-0.175594 -0.158898,-0.311843 0,-0.363449 -0.35197,-1.14431 -0.67344,-1.494058 -0.153973,-0.167515 -0.55233,-0.432457 -0.88524,-0.588757 -0.530177,-0.248919 -0.580292,-0.30493 -0.403845,-0.451368 0.253745,-0.210589 0.691338,-1.058508 0.691338,-1.339595 0,-0.116678 0.315878,-0.51565 0.701952,-0.886603 0.459657,-0.441658 0.843589,-0.9735 1.112288,-1.540805 0.377445,-0.796897 0.410337,-0.968463 0.410337,-2.1403253 0,-1.1759364 -0.03126,-1.3374623 -0.406119,-2.0988039 C 24.055754,6.8273157 23.172684,5.9442455 22.122787,5.4273053 21.361446,5.0524417 21.19992,5.0211864 20.023983,5.0211864 c -1.171862,0 -1.343428,0.032892 -2.140325,0.4103366 -0.567304,0.2687 -1.099147,0.6526307 -1.540804,1.1122881 -0.370955,0.3860735 -0.769927,0.7019516 -0.886604,0.7019516 -0.281087,0 -1.129006,0.4375937 -1.339595,0.6913378 -0.146438,0.176447 -0.202449,0.1263328 -0.451367,-0.4038447 -0.156301,-0.3329094 -0.421242,-0.7312671 -0.588759,-0.8852395 -0.350535,-0.3221942 -1.130847,-0.67344 -1.496083,-0.67344 -0.348842,0 -0.445218,-0.4220657 -0.203231,-0.8900174 0.273465,-0.5288231 0.479834,-0.58375 1.264239,-0.3364884 0.365634,0.1152561 0.780642,0.2095566 0.922239,0.2095566 C 13.855495,4.9576271 15,3.800896 15,3.5059772 15,3.4007317 14.880092,2.9941393 14.733538,2.6024386 14.484122,1.9358141 14.480644,1.8752631 14.679169,1.6558956 c 0.116651,-0.1288978 0.388001,-0.3072232 0.603,-0.3962789 0.381822,-0.1581559 0.404506,-0.1469433 0.97598,0.4824172 0.321789,0.3543849 0.679954,0.6756372 0.795922,0.7138939 0.334189,0.110246 1.547802,-0.2609986 1.779232,-0.5442683 0.115732,-0.1416552 0.248217,-0.5323583 0.294411,-0.868229 0.10997,-0.79957788 0.191647,-0.91123369 0.73055,-0.9986855 0.609989,-0.09898763 0.93354,0.23253801 1.049452,1.0753192 0.04995,0.3631479 0.18766,0.7295151 0.318845,0.8482358 0.286189,0.258998 1.476331,0.5840608 1.761741,0.4811839 0.115968,-0.041801 0.476696,-0.3669206 0.801619,-0.7224885 L 24.38069,1.0805085 24.853361,1.330906 c 0.25997,0.1377187 0.503149,0.3298196 0.540398,0.426891 0.03725,0.097071 -0.02657,0.475649 -0.14183,0.8412836 -0.311476,0.9881166 -0.274019,1.1834677 0.345752,1.8032388 0.61719,0.61719 0.91249,0.6780316 1.720915,0.3545645 0.707765,-0.2831915 1.011182,-0.1989828 1.328965,0.3688337 l 0.271931,0.485887 -0.646488,0.5946215 c -0.355567,0.3270417 -0.680687,0.6895039 -0.722487,0.8054715 -0.102878,0.2854107 0.222185,1.4755523 0.481183,1.7617419 0.118721,0.1311848 0.485087,0.2688993 0.848236,0.3188448 0.842781,0.1159121 1.174307,0.4394628 1.07532,1.0494517 -0.08676,0.534612 -0.191366,0.613552 -0.961456,0.725534 -1.009065,0.146732 -1.125647,0.285098 -1.481682,1.758544 -0.07722,0.319581 -0.0062,0.433177 0.648539,1.037705 0.718204,0.663098 0.731573,0.687723 0.57653,1.062029 -0.0873,0.210755 -0.264184,0.478633 -0.393083,0.595283 -0.219367,0.198525 -0.279918,0.195047 -0.946543,-0.05437 C 27.00586,15.119908 26.599269,15 26.494023,15 c -0.315342,0 -1.45165,1.14541 -1.45165,1.463278 0,0.15643 0.0858,0.527616 0.190678,0.824858 0.276857,0.784694 0.240962,0.990026 -0.222458,1.272579 -0.421088,0.256743 -0.545191,0.282074 -0.826271,0.168656 z"
     id="path152"
     inkscape:connector-curvature="0" /></svg>