<?xml version="1.0" encoding="UTF-8" standalone="no"?>
<svg
   xmlns:dc="http://purl.org/dc/elements/1.1/"
   xmlns:cc="http://creativecommons.org/ns#"
   xmlns:rdf="http://www.w3.org/1999/02/22-rdf-syntax-ns#"
   xmlns:svg="http://www.w3.org/2000/svg"
   xmlns="http://www.w3.org/2000/svg"
   xmlns:sodipodi="http://sodipodi.sourceforge.net/DTD/sodipodi-0.dtd"
   xmlns:inkscape="http://www.inkscape.org/namespaces/inkscape"
   enable-background="new 0 0 512 512"
   height="512px"
   id="Turtle"
   version="1.1"
   viewBox="0 0 512 512"
   width="512px"
   xml:space="preserve"
   sodipodi:docname="turtle.svg"
   inkscape:version="0.92.4 (5da689c313, 2019-01-14)"><metadata
     id="metadata42"><rdf:RDF><cc:Work
         rdf:about=""><dc:format>image/svg+xml</dc:format><dc:type
           rdf:resource="http://purl.org/dc/dcmitype/StillImage" /></cc:Work></rdf:RDF></metadata><defs
     id="defs40" /><sodipodi:namedview
     pagecolor="#ffffff"
     bordercolor="#666666"
     borderopacity="1"
     objecttolerance="10"
     gridtolerance="10"
     guidetolerance="10"
     inkscape:pageopacity="0"
     inkscape:pageshadow="2"
     inkscape:window-width="1858"
     inkscape:window-height="1057"
     id="namedview38"
     showgrid="false"
     inkscape:zoom="1.734375"
     inkscape:cx="256"
     inkscape:cy="256"
     inkscape:window-x="54"
     inkscape:window-y="-8"
     inkscape:window-maximized="1"
     inkscape:current-layer="Turtle" /><g
     id="g35"><path
       d="M421.811,254.617c0-32.698-26.602-59.3-59.301-59.3h-10.811c-12.732-16.048-29.414-28.824-48.564-36.848v-38.691   c0-25.885-21.061-46.944-46.946-46.944c-25.886,0-46.945,21.06-46.945,46.944v38.691c-19.15,8.023-35.832,20.8-48.564,36.848   H149.49c-32.698,0-59.3,26.602-59.3,59.3v6h44.563c-0.287,3.403-0.441,6.844-0.441,10.32v46.352c0,7.421,0.669,14.688,1.945,21.747   l-9.538,9.538c-23.12,23.121-23.12,60.741,0.001,83.861l4.242,4.243l36.224-36.224c22.258,23.805,53.92,38.711,89.003,38.711   c34.987,0,66.573-14.824,88.821-38.515l36.027,36.027l4.242-4.242c11.203-11.2,17.369-26.092,17.369-41.932   c0-15.839-6.166-30.73-17.369-41.931l-9.221-9.221c1.316-7.158,2.008-14.531,2.008-22.064v-46.352c0-3.477-0.154-6.917-0.441-10.32   h44.186V254.617z M221.244,119.778c0-19.269,15.677-34.944,34.945-34.944c19.268,0,34.946,15.676,34.946,34.944v34.396   c-11.076-3.321-22.805-5.114-34.946-5.114c-12.142,0-23.87,1.793-34.945,5.114V119.778z M102.569,248.617   c2.958-23.258,22.872-41.3,46.921-41.3h2.786c-7.662,12.469-13.142,26.413-15.908,41.3H102.569z M131.23,419.44   c-14.354-18.537-13.029-45.376,3.975-62.382l4.36-4.359c4.29,14.104,11.075,27.131,19.839,38.568L131.23,419.44z M344.256,382.926   c-2.408,3.222-4.994,6.303-7.732,9.239c-20.07,21.521-48.656,35.001-80.334,35.001c-31.774,0-60.437-13.563-80.517-35.197   c-2.732-2.943-5.309-6.033-7.708-9.262c-6.827-9.183-12.256-19.463-15.97-30.523c-2.353-7.007-4.013-14.327-4.908-21.879   c-0.506-4.27-0.774-8.611-0.774-13.016v-46.352c0-3.48,0.171-6.921,0.488-10.32c0.381-4.067,0.979-8.072,1.793-12   c2.907-14.034,8.502-27.096,16.217-38.625c3.495-5.224,7.424-10.134,11.737-14.675c9.295-9.783,20.369-17.858,32.696-23.708   c3.882-1.842,7.886-3.466,12-4.85c10.982-3.693,22.734-5.699,34.945-5.699c12.211,0,23.963,2.006,34.946,5.699   c4.113,1.384,8.119,3.008,12,4.85c12.328,5.85,23.402,13.925,32.695,23.708c4.158,4.377,7.961,9.095,11.359,14.107   c7.912,11.667,13.641,24.928,16.596,39.192c0.814,3.928,1.412,7.933,1.793,12c0.318,3.399,0.488,6.84,0.488,10.32v46.352   c0,4.258-0.252,8.456-0.725,12.589c-0.861,7.502-2.477,14.776-4.775,21.745C356.82,362.984,351.273,373.533,344.256,382.926z    M376.795,357.059c8.934,8.935,13.854,20.813,13.854,33.446c0,10.611-3.471,20.69-9.875,28.938l-27.963-27.962   c8.783-11.41,15.594-24.41,19.916-38.491L376.795,357.059z M376.01,248.617c-2.766-14.887-8.246-28.831-15.906-41.3h2.406   c24.049,0,43.963,18.042,46.922,41.3H376.01z"
       id="path27" /><path
       d="M335.189,224.182c-3.891-6.51-8.615-12.594-14.133-18.111c-10.381-10.381-22.766-17.956-36.24-22.403   c-9.135-3.015-18.764-4.606-28.627-4.606c-9.863,0-19.493,1.592-28.627,4.606c-13.475,4.447-25.859,12.022-36.24,22.403   c-5.702,5.703-10.549,12.017-14.512,18.775c-6.418,10.946-10.47,23.078-11.898,35.771c-0.384,3.406-0.6,6.847-0.6,10.32v46.352   c0,13.662,3.009,26.892,8.707,38.948c3.913,8.279,9.102,16,15.455,22.931c0.928,1.011,1.871,2.012,2.848,2.988   c17.417,17.418,40.454,27.01,64.867,27.01c24.413,0,47.45-9.592,64.868-27.01c0.914-0.913,1.793-1.852,2.664-2.795   c6.609-7.169,11.957-15.192,15.941-23.806c5.494-11.874,8.404-24.859,8.404-38.267v-46.352c0-3.474-0.217-6.914-0.6-10.32   C346.01,247.669,341.834,235.299,335.189,224.182z M256.189,191.061c14.915,0,29.233,4.142,41.692,11.859l-20.92,38.213h-43.87   l-20.319-37.115C225.625,195.594,240.583,191.061,256.189,191.061z M282.016,256.886l21.494,37.228l-21.256,36.816l-2.404,4.164   h-8.996h-31.655h-6.67l-3.598-6.232l-20.063-34.748l20.3-35.159l3.36-5.821h7.133h30.729h9.459L282.016,256.886z M199.806,373.672   c-15.15-15.151-23.494-35.175-23.494-56.383v-46.352c0-21.208,8.344-41.231,23.494-56.383c1.086-1.085,2.202-2.125,3.336-3.14   l19.282,35.22l-25.68,44.479c-1.071,1.856-1.071,4.144,0,6l25.442,44.067l-19.359,35.359   C201.801,375.612,200.792,374.658,199.806,373.672z M256.189,397.166c-15.744,0-30.83-4.607-43.761-13.175l20.201-36.897h44.794   l20.801,37.995C285.686,392.944,271.24,397.166,256.189,397.166z M336.066,317.289c0,21.208-8.344,41.231-23.494,56.383   c-1.484,1.483-3.027,2.882-4.6,4.233l-18.975-34.657l26.635-46.135c1.072-1.856,1.072-4.144,0-6l-26.873-46.546l18.898-34.518   c1.684,1.433,3.332,2.923,4.914,4.505c12.301,12.302,20.113,27.816,22.617,44.567v1.495h0.188c0.443,3.399,0.689,6.842,0.689,10.32   V317.289z"
       id="path29" /><rect
       height="13.963"
       width="12"
       x="269.848"
       y="112.428"
       id="rect31" /><rect
       height="13.963"
       width="12"
       x="229.847"
       y="112.428"
       id="rect33" /></g><path
     style="fill:#f2f2f2;stroke-width:0.57657659"
     d="m 247.10211,438.53355 c -27.50093,-2.09878 -53.94693,-13.76066 -73.52395,-32.42184 -3.24363,-3.09189 -6.11927,-5.62162 -6.39031,-5.62162 -0.27104,0 -8.55784,8.06199 -18.41511,17.91554 l -17.92231,17.91553 -4.37795,-4.65379 c -7.16155,-7.61277 -11.61652,-15.28531 -14.65467,-25.2389 -1.42494,-4.66838 -1.55201,-5.90225 -1.59131,-15.45189 -0.0498,-12.09052 0.81014,-16.34018 5.17443,-25.57205 3.39464,-7.18076 6.52076,-11.43291 14.45742,-19.66494 l 6.63215,-6.87897 -0.75696,-4.78887 c -0.56302,-3.56191 -0.75696,-13.6154 -0.75696,-39.23916 v -34.4503 l -22.43022,-1.5e-4 -22.430212,-1.6e-4 0.382727,-7.15916 c 0.654575,-12.24428 4.528056,-23.82853 10.994485,-32.88073 3.05671,-4.27901 11.03656,-11.99226 15.32105,-14.8092 10.67791,-7.02042 20.34571,-9.72748 34.73995,-9.72748 h 8.84262 l 5.12344,-5.62163 c 11.62497,-12.75532 25.11588,-22.86609 39.04778,-29.26438 l 5.01506,-2.30318 0.19849,-23.63964 c 0.22366,-26.63678 0.21628,-26.58097 4.72941,-35.747751 5.8963,-11.976197 15.86231,-20.352091 28.86181,-24.256799 6.94886,-2.087254 17.73413,-2.242776 24.66229,-0.355626 7.05418,1.921473 14.16471,5.911407 19.53046,10.959116 7.01403,6.598298 10.73533,12.590225 13.56152,21.83639 l 1.55219,5.07818 0.23428,23.11799 0.23428,23.118 4.99538,2.35312 c 14.64718,6.89971 30.36915,18.87966 40.08679,30.54563 l 3.3689,4.04435 10.75182,0.28025 c 9.45952,0.24656 11.36057,0.46303 15.81652,1.80101 19.6558,5.90201 34.33803,19.96946 40.39502,38.70361 1.81698,5.6199 2.49777,9.63244 3.00811,17.72973 l 0.39064,6.1982 -22.12293,-6e-5 -22.12292,-6e-5 0.20458,27.47658 c 0.19719,26.48378 -0.32086,41.64411 -1.6653,48.7333 l -0.56946,3.00273 7.12379,7.2406 c 9.67625,9.83492 13.60954,15.89006 16.68832,25.69106 2.21377,7.04728 2.91586,12.6448 2.58462,20.60629 -0.62298,14.97358 -6.11154,27.57889 -17.06327,39.18829 l -3.76406,3.99011 -18.02332,-18.01651 -18.02333,-18.01652 -4.32483,4.10818 c -21.5606,20.48046 -47.04847,31.86165 -76.47623,34.14921 -7.90165,0.61423 -9.23653,0.6141 -17.30472,-0.002 z m 17.89248,-11.52869 c 53.88088,-4.66809 96.13507,-46.69674 100.88326,-100.34476 0.77037,-8.7041 0.75784,-56.66491 -0.017,-65.12496 -3.60332,-39.34204 -27.03009,-73.10715 -62.39848,-89.93522 -42.54741,-20.24381 -92.88389,-11.33663 -125.64924,22.23399 -6.33424,6.48991 -10.64164,11.863 -14.57203,18.17729 -8.69955,13.97607 -13.92121,28.29543 -16.12168,44.21042 -1.28114,9.26594 -1.29492,66.67132 -0.0182,75.6554 1.79982,12.66464 5.23049,23.75087 10.79479,34.88334 5.38269,10.76915 10.98028,18.48995 20.21606,27.88416 15.49813,15.76399 35.54102,26.57752 56.79979,30.64458 11.23968,2.15029 19.57799,2.62587 30.08271,1.71576 z m -119.42477,-21.5404 14.04388,-14.05266 -4.55852,-6.88962 c -5.20556,-7.86752 -10.04917,-17.39564 -13.2059,-25.97804 -1.19557,-3.25045 -2.37111,-5.90991 -2.61233,-5.90991 -0.75029,0 -8.1793,8.50011 -10.45882,11.96675 -8.65572,13.16341 -9.95779,31.37407 -3.26692,45.69091 1.92458,4.11814 5.04578,9.22523 5.63799,9.22523 0.20721,0 6.69649,-6.3237 14.42062,-14.05266 z m 237.55464,11.10271 c 2.89038,-4.41512 5.14913,-9.76754 6.49035,-15.37985 1.00977,-4.22532 1.15294,-6.21006 0.90295,-12.51705 -0.52756,-13.30968 -4.26283,-22.0019 -13.5695,-31.57713 l -4.35244,-4.47804 -1.80792,5.05461 c -3.72384,10.41117 -8.04299,18.85116 -14.51781,28.36901 l -3.70108,5.44051 14.01018,14.01895 c 7.7056,7.71041 14.14606,14.01894 14.31212,14.01894 0.16607,0 1.17098,-1.32748 2.23315,-2.94995 z M 138.44612,240.98929 c 2.71913,-10.61659 6.87417,-20.98209 12.036,-30.02593 1.12406,-1.96944 1.84851,-3.70146 1.6099,-3.84894 -0.78778,-0.48687 -11.28029,0.66149 -15.06407,1.6487 -15.80699,4.12414 -28.48072,16.69723 -33.18125,32.91776 -2.32607,8.0268 -4.136513,7.21082 15.60658,7.03401 l 17.05328,-0.15273 z M 409.42834,246.4 c -0.21359,-1.34775 -1.11174,-4.58562 -1.9959,-7.19527 -5.25023,-15.49644 -18.87313,-27.62567 -34.72727,-30.91963 -5.43789,-1.12981 -12.57544,-1.63758 -12.57544,-0.89462 0,0.30967 1.13435,2.56485 2.52078,5.0115 5.02593,8.86935 9.92639,21.73648 12.17963,31.98 l 0.98291,4.46847 h 17.00181 17.00182 z M 227.34987,152.88054 c 18.16707,-4.54233 39.04541,-4.55293 57.71749,-0.0293 3.27065,0.79234 6.05984,1.44064 6.1982,1.44064 0.13836,0 0.25156,-8.31364 0.25156,-18.47476 0,-20.94744 -0.42849,-24.45326 -3.87285,-31.6874 -2.84447,-5.974192 -9.65013,-12.798193 -15.73076,-15.773147 -7.07037,-3.459189 -14.36161,-4.53834 -21.65987,-3.205801 -10.99649,2.007775 -20.46641,8.988931 -25.30025,18.651178 -3.58952,7.17498 -3.77862,8.71226 -3.77862,30.71918 0,10.87391 0.11934,19.77075 0.26519,19.77075 0.14586,0 2.80532,-0.63511 5.90991,-1.41135 z"
     id="path44"
     inkscape:connector-curvature="0" /><path
     style="fill:#f2f2f2;stroke-width:0.57657659"
     d="m 229.82342,119.40901 v -6.63063 h 5.76577 5.76576 v 6.63063 6.63063 h -5.76576 -5.76577 z"
     id="path46"
     inkscape:connector-curvature="0" /><path
     style="fill:#f2f2f2;stroke-width:0.57657659"
     d="m 270.18378,119.40901 v -6.63063 h 5.76577 5.76577 v 6.63063 6.63063 h -5.76577 -5.76577 z"
     id="path48"
     inkscape:connector-curvature="0" /><path
     style="fill:#f2f2f2;stroke-width:0.57657659"
     d="m 248.56216,408.52633 c -40.23484,-3.1934 -74.12517,-33.63734 -82.29134,-73.92294 -1.27657,-6.29757 -1.31226,-7.39113 -1.31226,-40.20339 0,-37.21411 0.11694,-38.75329 3.85499,-50.73874 2.32595,-7.4578 8.28581,-19.32742 13.00345,-25.89759 6.3898,-8.89896 16.21935,-18.16161 25.86482,-24.37312 3.9842,-2.56575 12.9147,-6.85956 18.38598,-8.84002 19.90159,-7.20388 43.67335,-6.74438 63.52889,1.22797 10.7118,4.30098 20.63207,10.61604 28.89369,18.39318 15.7199,14.79806 25.1792,32.88597 28.49128,54.48057 1.06393,6.9368 1.06393,63.98213 0,70.91892 -3.24871,21.18138 -12.61809,39.34537 -27.75476,53.80686 -19.06472,18.21432 -44.40509,27.23251 -70.66474,25.1483 z m 22.79741,-12.62582 c 3.02505,-0.58634 7.56559,-1.75476 10.09009,-2.59648 4.63561,-1.54562 16.19299,-6.98766 16.74841,-7.88636 0.16534,-0.26752 -4.36137,-8.98567 -10.05937,-19.37366 l -10.35999,-18.88725 -22.68035,-0.1455 -22.68034,-0.1455 -10.01199,18.28265 c -7.57464,13.83186 -9.87658,18.49929 -9.45576,19.17253 0.30593,0.48943 2.86538,2.11576 5.68767,3.61409 16.2938,8.65017 34.77976,11.44314 52.72163,7.96548 z m 42.50191,-23.31885 c 11.22173,-11.73814 18.23926,-25.45971 21.25938,-41.56905 0.97234,-5.18651 1.08094,-8.89376 1.08094,-36.9009 0,-28.00714 -0.1086,-31.71439 -1.08094,-36.9009 -3.05821,-16.31255 -10.04335,-29.87571 -21.57219,-41.88713 -4.38478,-4.5683 -5.64171,-5.58234 -6.18122,-4.98669 -1.4301,1.57892 -18.80285,34.04048 -18.55685,34.6741 0.14269,0.3675 6.3884,11.28959 13.87937,24.27131 7.49097,12.98171 13.61994,24.1549 13.61994,24.82931 0,0.67441 -6.13491,11.8476 -13.63312,24.82931 -7.49822,12.98172 -13.63876,23.89214 -13.64565,24.2454 -0.0223,1.14569 18.52419,34.81718 19.17759,34.81718 0.25813,0 2.80187,-2.43987 5.65275,-5.42194 z m -101.33267,-13.1252 c 5.23096,-9.56669 9.5771,-17.6748 9.6581,-18.01802 0.081,-0.34321 -5.70675,-10.74294 -12.86166,-23.11051 -11.2014,-19.36211 -12.98341,-22.76688 -12.82525,-24.50451 0.1243,-1.3657 4.37494,-9.28312 13.14994,-24.49364 7.13145,-12.3616 12.88005,-22.73998 12.77468,-23.06307 -0.62929,-1.9294 -18.93442,-34.85599 -19.38721,-34.873 -0.92246,-0.0347 -7.43338,6.96227 -11.17712,12.01144 -6.76734,9.12711 -11.76795,20.24573 -14.29652,31.78764 -0.97968,4.47183 -1.07368,7.8792 -1.07368,38.91892 0,31.03972 0.094,34.4471 1.07368,38.91892 2.51091,11.4613 7.5671,22.74314 14.13209,31.53281 3.49204,4.67541 10.26801,12.28701 10.93808,12.28701 0.21122,0 4.66391,-7.82729 9.89487,-17.39399 z m 79.36524,-44.58799 c 6.42304,-11.0991 11.67826,-20.43964 11.67826,-20.75676 0,-0.31712 -5.25522,-9.65766 -11.67826,-20.75676 l -11.67826,-20.18018 -23.9317,-0.15038 -23.93171,-0.15037 -11.73895,20.32234 c -6.45643,11.17729 -11.73896,20.5892 -11.73896,20.91535 0,0.32615 5.28253,9.73806 11.73896,20.91536 l 11.73895,20.32234 23.93171,-0.15038 23.9317,-0.15038 z m -4.30374,-92.54054 c 5.64545,-10.30631 10.26551,-19.0287 10.2668,-19.38311 0.003,-0.9459 -11.00017,-6.24532 -17.00666,-8.19053 -8.39265,-2.71797 -15.13248,-3.74916 -24.5045,-3.74918 -9.83823,-3e-5 -16.62556,1.06673 -25.3412,3.98287 -5.71759,1.91304 -16.74084,7.20204 -17.88588,8.58173 -0.35053,0.42236 2.9346,6.99669 9.60419,19.22029 l 10.13696,18.57835 22.23292,-0.15084 22.23292,-0.15084 z"
     id="path64"
     inkscape:connector-curvature="0" /></svg>