<?xml version="1.0" encoding="UTF-8" standalone="no"?>
<svg
   xmlns:dc="http://purl.org/dc/elements/1.1/"
   xmlns:cc="http://creativecommons.org/ns#"
   xmlns:rdf="http://www.w3.org/1999/02/22-rdf-syntax-ns#"
   xmlns:svg="http://www.w3.org/2000/svg"
   xmlns="http://www.w3.org/2000/svg"
   xmlns:sodipodi="http://sodipodi.sourceforge.net/DTD/sodipodi-0.dtd"
   xmlns:inkscape="http://www.inkscape.org/namespaces/inkscape"
   id="parrot"
   style="enable-background:new 0 0 300 300;"
   version="1.1"
   viewBox="0 0 300 300"
   xml:space="preserve"
   sodipodi:docname="bird.svg"
   inkscape:version="0.92.4 (5da689c313, 2019-01-14)"><metadata
     id="metadata51"><rdf:RDF><cc:Work
         rdf:about=""><dc:format>image/svg+xml</dc:format><dc:type
           rdf:resource="http://purl.org/dc/dcmitype/StillImage" /></cc:Work></rdf:RDF></metadata><defs
     id="defs49" /><sodipodi:namedview
     pagecolor="#ffffff"
     bordercolor="#666666"
     borderopacity="1"
     objecttolerance="10"
     gridtolerance="10"
     guidetolerance="10"
     inkscape:pageopacity="0"
     inkscape:pageshadow="2"
     inkscape:window-width="640"
     inkscape:window-height="922"
     id="namedview47"
     showgrid="false"
     inkscape:zoom="0.78666667"
     inkscape:cx="150"
     inkscape:cy="150"
     inkscape:window-x="490"
     inkscape:window-y="95"
     inkscape:window-maximized="0"
     inkscape:current-layer="parrot" /><g
     id="g14"><path
       d="   M178.229,50.468c0,0-145.034-14.462-148.184,117.402c-3.15,131.865,160.617,85.715,172.081,66.234   c11.464-19.476,17.03-65.492-31.41-80.181"
       style="fill-rule:evenodd;clip-rule:evenodd;fill:none;stroke:#000000;stroke-width:8;stroke-linecap:round;stroke-linejoin:round;stroke-miterlimit:10;"
       id="path2" /><path
       d="   M170.189,153.489c0,0-20.391,28.645-27.742,45.25c-7.351,16.6-30.194,32.851-48.454,16.425   c-18.261-16.425-49.292-95.661,13.452-126.481c19.066-9.366,35.275-11.669,48.604-10.336"
       style="fill-rule:evenodd;clip-rule:evenodd;fill:none;stroke:#000000;stroke-width:8;stroke-linecap:round;stroke-linejoin:round;stroke-miterlimit:10;"
       id="path4" /><path
       d="   M277.942,149.542c0,0,5.927-76.671-101.638-99.542c0,0-55.186,72.284-5.688,104c0,0,8.603-9.323,39.095-11.042   C240.202,141.24,277.942,149.542,277.942,149.542z"
       style="fill-rule:evenodd;clip-rule:evenodd;fill:none;stroke:#000000;stroke-width:8;stroke-linecap:round;stroke-linejoin:round;stroke-miterlimit:10;"
       id="path6" /><path
       d="   M278,150c0,0-69.05-39.389-120-17.245"
       style="fill:none;stroke:#000000;stroke-width:8;stroke-linecap:round;stroke-linejoin:round;stroke-miterlimit:10;"
       id="path8" /><circle
       cx="116"
       cy="124"
       r="22"
       style="fill-rule:evenodd;clip-rule:evenodd;fill:none;stroke:#000000;stroke-width:8;stroke-linecap:round;stroke-linejoin:round;stroke-miterlimit:10;"
       id="circle10" /><circle
       cx="110"
       cy="114"
       r="8"
       style="fill-rule:evenodd;clip-rule:evenodd;fill:none;stroke:#000000;stroke-width:8;stroke-linecap:round;stroke-linejoin:round;stroke-miterlimit:10;"
       id="circle12" /></g><g
     id="g16" /><g
     id="g18" /><g
     id="g20" /><g
     id="g22" /><g
     id="g24" /><g
     id="g26" /><g
     id="g28" /><g
     id="g30" /><g
     id="g32" /><g
     id="g34" /><g
     id="g36" /><g
     id="g38" /><g
     id="g40" /><g
     id="g42" /><g
     id="g44" /><path
     style="fill:#f2f2f2;stroke-width:1.27118647"
     d="M 102.9661,260.50918 C 78.455289,256.64879 63.025557,249.69055 50.173223,236.7015 40.034656,226.45509 34.514251,216.88996 30.261728,202.20113 27.66941,193.24689 27.344271,189.50425 27.44954,169.83051 c 0.105892,-19.79004 0.489799,-23.63796 3.477703,-34.85728 14.57703,-54.735491 58.032522,-84.758812 127.352817,-87.987835 17.39352,-0.810211 18.15857,-0.733681 32.41526,3.242571 24.19912,6.749244 44.63861,17.488606 59.53744,31.282284 14.08483,13.04008 23.88174,29.01914 28.24026,46.06074 2.51445,9.83146 3.29904,23.7938 1.40289,24.96569 -0.58096,0.35905 -7.03065,-0.42456 -14.33264,-1.74135 -31.26377,-5.6379 -61.59304,-5.82446 -79.95005,-0.49179 -6.12492,1.77928 -6.69384,2.20935 -4.58985,3.46968 16.81741,10.07391 24.03858,17.61627 29.10289,30.39729 5.68553,14.34883 2.52185,41.14617 -6.2179,52.66763 -6.45781,8.51321 -33.1669,18.65559 -59.37652,22.54734 -12.07636,1.79316 -33.59899,2.3753 -41.54574,1.1237 z m 46.6156,-8.77164 c 19.02955,-3.29821 41.26662,-11.5018 47.93876,-17.68533 4.68632,-4.34314 8.41174,-17.90489 8.41174,-30.62147 0,-13.34333 -3.12127,-22.2431 -10.79384,-30.77686 -5.32076,-5.91795 -18.56024,-14.26405 -22.62719,-14.26405 -2.20039,0 -16.93422,22.29775 -24.95993,37.77367 -7.01136,13.51997 -13.66402,20.96128 -22.68593,25.37529 -13.68603,6.69596 -27.270563,3.73539 -36.995522,-8.06267 C 73.909232,196.53955 64.239095,161.91034 67.308216,139.84418 70.920718,113.87125 83.325558,96.999094 107.41525,85.29351 121.644,78.379525 130.83306,75.891651 145.80333,74.900198 l 11.69316,-0.774415 5.87424,-10.10989 c 3.23084,-5.56044 5.64914,-10.335001 5.37401,-10.610135 -0.98052,-0.980525 -32.2591,1.949841 -41.6261,3.899784 C 93.871593,64.226639 67.94633,79.925636 52.554671,102.45763 35.203054,127.85882 28.7873,168.05695 36.970231,200.10248 47.897038,242.89344 89.787278,262.1011 149.5817,251.73754 Z m -28.18339,-36.00476 c 7.58332,-3.50023 14.16341,-10.93057 20.43747,-23.07831 3.08757,-5.97811 9.56765,-16.9434 14.40018,-24.36732 l 8.78641,-13.49803 -5.39705,-5.63268 c -13.65298,-14.24904 -16.55341,-34.94347 -8.27137,-59.015661 3.00358,-8.730014 2.2707,-9.537135 -7.70988,-8.490898 -19.59532,2.054126 -41.05648,11.293108 -52.262078,22.498709 -13.519358,13.51936 -18.343011,27.44002 -17.253474,49.79209 0.962074,19.73716 7.020356,38.50776 16.92471,52.43843 7.960454,11.19655 18.988062,14.59574 30.345082,9.35367 z m 55.83382,-69.42964 c 12.09168,-5.34751 27.75826,-7.39587 50.14721,-6.55659 10.74721,0.40287 19.27771,0.46983 18.95669,0.1488 -1.81043,-1.81042 -24.08426,-7.2852 -37.04526,-9.10552 -12.63841,-1.77501 -16.95113,-1.87896 -26.69492,-0.64345 -12.88027,1.63322 -23.69754,4.83878 -23.69754,7.02246 0,1.09776 9.93952,12.32269 10.91158,12.32269 0.11708,0 3.45702,-1.43478 7.42224,-3.18839 z m 95.50001,-13.4459 c -5.57178,-26.72241 -24.83767,-50.034048 -53.06819,-64.212266 -11.31724,-5.683857 -29.47381,-12.31938 -37.89812,-13.850289 -4.44597,-0.807946 -4.48597,-0.773015 -10.49434,9.165971 -6.94441,11.487341 -12.72322,24.666877 -15.51452,35.383391 -1.91166,7.339383 -2.58178,22.853583 -1.20803,27.967763 0.69858,2.60067 0.72779,2.59925 9.83433,-0.47842 24.53605,-8.29228 63.11808,-3.33062 100.02351,12.86304 5.24364,2.30085 9.69994,3.8038 9.90289,3.33988 0.20295,-0.46392 -0.50694,-5.0445 -1.57753,-10.17907 z"
     id="path53"
     inkscape:connector-curvature="0" /><path
     style="fill:#f2f2f2;stroke-width:1.27118647"
     d="m 106.13316,147.19937 c -8.670926,-4.07284 -15.864744,-14.56178 -15.864744,-23.13157 0,-4.69145 2.998174,-11.88749 6.717991,-16.12413 15.784043,-17.97703 43.973403,-7.59194 44.087373,16.24199 0.0837,17.5094 -19.37423,30.32543 -34.94062,23.01371 z m 19.63575,-7.73578 c 4.69034,-3.33746 7.68869,-7.95029 8.52748,-13.11914 1.39886,-8.62017 -6.76126,-20.07326 -14.30185,-20.07326 -1.77541,0 -1.94369,0.33898 -0.75725,1.52542 1.82963,1.82964 2.00956,9.17777 0.30282,12.36685 -1.68833,3.15467 -8.22074,5.63339 -12.20853,4.63252 -1.82104,-0.45705 -4.69231,-2.32149 -6.3806,-4.14318 l -3.069624,-3.31218 v 5.96909 c 0,9.64398 3.580484,14.85584 12.382024,18.02368 5.48677,1.97479 11.04436,1.3046 15.50553,-1.8698 z m -12.88755,-22.00596 c 3.8061,-3.8061 -0.51535,-9.81304 -5.18114,-7.20193 -3.6766,2.05753 -1.9514,8.72735 2.25741,8.72735 0.76906,0 2.08474,-0.68644 2.92373,-1.52542 z"
     id="path55"
     inkscape:connector-curvature="0" /></svg>