<?xml version="1.0" encoding="UTF-8" standalone="no"?>
<svg
   xmlns:dc="http://purl.org/dc/elements/1.1/"
   xmlns:cc="http://creativecommons.org/ns#"
   xmlns:rdf="http://www.w3.org/1999/02/22-rdf-syntax-ns#"
   xmlns:svg="http://www.w3.org/2000/svg"
   xmlns="http://www.w3.org/2000/svg"
   xmlns:sodipodi="http://sodipodi.sourceforge.net/DTD/sodipodi-0.dtd"
   xmlns:inkscape="http://www.inkscape.org/namespaces/inkscape"
   id="cat"
   style="enable-background:new 0 0 300 300;"
   version="1.1"
   viewBox="0 0 300 300"
   xml:space="preserve"
   sodipodi:docname="cat.svg"
   inkscape:version="0.92.4 (5da689c313, 2019-01-14)"><metadata
     id="metadata67"><rdf:RDF><cc:Work
         rdf:about=""><dc:format>image/svg+xml</dc:format><dc:type
           rdf:resource="http://purl.org/dc/dcmitype/StillImage" /></cc:Work></rdf:RDF></metadata><defs
     id="defs65" /><sodipodi:namedview
     pagecolor="#ffffff"
     bordercolor="#666666"
     borderopacity="1"
     objecttolerance="10"
     gridtolerance="10"
     guidetolerance="10"
     inkscape:pageopacity="0"
     inkscape:pageshadow="2"
     inkscape:window-width="640"
     inkscape:window-height="771"
     id="namedview63"
     showgrid="false"
     inkscape:zoom="0.78666667"
     inkscape:cx="150"
     inkscape:cy="150"
     inkscape:window-x="751"
     inkscape:window-y="385"
     inkscape:window-maximized="0"
     inkscape:current-layer="cat" /><g
     id="g30"><path
       d="   M68,110.36V49.768c0-4.412,2.059-5.034,4.583-1.42l29.071,41.642"
       style="fill-rule:evenodd;clip-rule:evenodd;fill:none;stroke:#000000;stroke-width:8;stroke-linecap:round;stroke-linejoin:round;stroke-miterlimit:10;"
       id="path2" /><path
       d="   M236,112.473V49.768c0-4.412-2.059-5.034-4.583-1.42L202.375,89.95"
       style="fill-rule:evenodd;clip-rule:evenodd;fill:none;stroke:#000000;stroke-width:8;stroke-linecap:round;stroke-linejoin:round;stroke-miterlimit:10;"
       id="path4" /><ellipse
       cx="152"
       cy="172"
       rx="112"
       ry="90"
       style="fill-rule:evenodd;clip-rule:evenodd;fill:none;stroke:#000000;stroke-width:8;stroke-linecap:round;stroke-linejoin:round;stroke-miterlimit:10;"
       id="ellipse6" /><path
       d="   M151.762,215.055c-2.078,3.922-5.444,3.93-7.525,0l-7.385-13.951c-2.078-3.922-0.225-7.104,4.151-7.104h13.995   c4.37,0,6.232,3.174,4.151,7.104L151.762,215.055z"
       style="fill-rule:evenodd;clip-rule:evenodd;fill:none;stroke:#000000;stroke-width:8;stroke-linecap:round;stroke-linejoin:round;stroke-miterlimit:10;"
       id="path8" /><circle
       cx="108"
       cy="158"
       r="16"
       style="fill-rule:evenodd;clip-rule:evenodd;fill:none;stroke:#000000;stroke-width:8;stroke-linecap:round;stroke-linejoin:round;stroke-miterlimit:10;"
       id="circle10" /><circle
       cx="104"
       cy="162"
       r="8"
       style="fill-rule:evenodd;clip-rule:evenodd;"
       id="circle12" /><circle
       cx="196"
       cy="158"
       r="16"
       style="fill-rule:evenodd;clip-rule:evenodd;fill:none;stroke:#000000;stroke-width:8;stroke-linecap:round;stroke-linejoin:round;stroke-miterlimit:10;"
       id="circle14" /><circle
       cx="192"
       cy="162"
       r="8"
       style="fill-rule:evenodd;clip-rule:evenodd;"
       id="circle16" /><path
       d="   M148,218c0,0-13,12-26,12s-26-12-26-12"
       style="fill:none;stroke:#000000;stroke-width:8;stroke-linecap:round;stroke-linejoin:round;stroke-miterlimit:10;"
       id="path18" /><path
       d="   M200,218c0,0-13,12-26,12c-13,0-26-12-26-12"
       style="fill:none;stroke:#000000;stroke-width:8;stroke-linecap:round;stroke-linejoin:round;stroke-miterlimit:10;"
       id="path20" /><line
       style="fill:none;stroke:#000000;stroke-width:8;stroke-linecap:round;stroke-linejoin:round;stroke-miterlimit:10;"
       x1="36"
       x2="112"
       y1="186"
       y2="206"
       id="line22" /><line
       style="fill:none;stroke:#000000;stroke-width:8;stroke-linecap:round;stroke-linejoin:round;stroke-miterlimit:10;"
       x1="36"
       x2="112"
       y1="166"
       y2="194"
       id="line24" /><line
       style="fill:none;stroke:#000000;stroke-width:8;stroke-linecap:round;stroke-linejoin:round;stroke-miterlimit:10;"
       x1="196"
       x2="272"
       y1="194"
       y2="174"
       id="line26" /><line
       style="fill:none;stroke:#000000;stroke-width:8;stroke-linecap:round;stroke-linejoin:round;stroke-miterlimit:10;"
       x1="196"
       x2="272"
       y1="206"
       y2="194"
       id="line28" /></g><g
     id="g32" /><g
     id="g34" /><g
     id="g36" /><g
     id="g38" /><g
     id="g40" /><g
     id="g42" /><g
     id="g44" /><g
     id="g46" /><g
     id="g48" /><g
     id="g50" /><g
     id="g52" /><g
     id="g54" /><g
     id="g56" /><g
     id="g58" /><g
     id="g60" /><path
     style="fill:#f2f2f2;stroke-width:1.27118647"
     d="M 123.30508,262.42539 C 83.991413,254.01702 51.841558,228.69433 41.131964,197.7021 c -1.519724,-4.39789 -3.379745,-7.30105 -5.220947,-8.14896 -3.240497,-1.49231 -3.830168,-5.70138 -0.95339,-6.80531 1.32739,-0.50937 1.90678,-2.58035 1.90678,-6.81563 0,-4.23527 -0.57939,-6.30625 -1.90678,-6.81563 -2.470942,-0.94818 -2.491266,-5.89623 -0.02422,-5.89623 1.035409,0 2.213018,-1.57309 2.616909,-3.49576 3.385173,-16.11466 9.825201,-29.24172 20.545146,-41.8783 l 6.735045,-7.93922 V 77.609181 c 0,-34.503482 0.347686,-36.422904 6.257884,-34.54708 1.411479,0.447986 8.957288,10.076814 16.768464,21.397396 7.811175,11.320582 14.549245,20.968527 14.973485,21.439879 0.42425,0.471351 5.91966,-0.528773 12.21203,-2.222498 15.79473,-4.251484 34.74595,-5.889591 50.00883,-4.322665 10.54861,1.082945 27.06539,4.516599 33.37766,6.938842 1.35617,0.520409 6.1942,-5.42791 17.00288,-20.904874 22.87781,-32.758757 23.55131,-32.407106 23.55131,12.296804 v 32.373685 l 6.03814,6.7828 c 11.98847,13.46696 20.13371,30.85473 21.54785,45.99854 0.71954,7.70544 0.87952,8.00745 4.24149,8.00745 6.24734,0 5.95455,5.43909 -0.37835,7.02854 -1.91567,0.4808 -3.48932,1.52722 -3.49702,2.32537 -0.008,0.79814 -0.36856,3.5963 -0.80192,6.21812 -0.78774,4.76581 -0.78684,4.76695 3.75253,4.76695 8.71907,0 7.12823,5.46315 -2.02419,6.95134 -5.11287,0.83137 -5.55044,1.26528 -9.4332,9.35431 -12.74095,26.54352 -42.80466,47.59853 -78.5555,55.01607 -15.26283,3.1667 -41.55458,3.12824 -56.5678,-0.0827 z m 47.84289,-5.24181 c 26.99695,-3.75493 51.82669,-16.3022 68.69981,-34.71624 6.71108,-7.32397 15.37156,-20.57063 14.19776,-21.71621 -0.24412,-0.23825 -12.45656,1.49936 -27.13876,3.86137 -32.13975,5.1705 -33.68644,5.2526 -33.68644,1.78829 0,-1.42026 0.79808,-2.88853 1.77349,-3.26283 0.97542,-0.3743 15.26256,-2.82144 31.74917,-5.43807 16.48661,-2.61665 30.3235,-5.10537 30.74864,-5.5305 0.42514,-0.42514 1.09496,-3.17358 1.4885,-6.10766 0.64355,-4.79804 0.47295,-5.26425 -1.69587,-4.63448 -17.99207,5.2245 -61.91368,16.02282 -62.84096,15.44973 -2.04717,-1.26522 -1.36499,-5.4768 1.00161,-6.18363 1.22351,-0.36543 13.37923,-3.58013 27.01271,-7.14378 13.63347,-3.56364 27.86643,-7.34526 31.62879,-8.40358 l 6.84066,-1.92424 -0.84359,-8.23399 c -1.70122,-16.60488 -9.13118,-31.75657 -22.27218,-45.419 -20.62236,-21.440638 -46.59978,-32.202131 -80.81978,-33.480679 -15.03741,-0.561836 -19.86602,-0.240056 -31.14407,2.075454 -24.31319,4.991768 -42.292097,14.387885 -58.484816,30.565275 -11.350072,11.33933 -17.216633,20.61742 -20.843094,32.96378 -3.998458,13.61283 -4.710605,12.77703 17.993162,21.11724 37.085448,13.62329 49.027548,18.27281 50.362918,19.60817 0.9245,0.92451 0.7284,1.92955 -0.64436,3.30231 -2.08065,2.08065 0.33667,2.86604 -60.701009,-19.72189 l -10.664654,-3.94661 0.81843,5.97109 c 0.450136,3.2841 1.045878,6.19854 1.323871,6.47653 0.277992,0.27799 15.863453,4.53583 34.634359,9.46187 18.770906,4.92603 34.548643,9.60608 35.061643,10.4001 1.39429,2.15809 0.44318,3.94389 -2.30348,4.32502 -1.34354,0.18642 -16.440402,-3.35835 -33.54858,-7.87728 -17.108179,-4.51892 -31.347883,-7.97412 -31.643789,-7.67822 -1.130077,1.13008 5.122697,13.91953 10.458913,21.39271 22.923062,32.10291 67.878566,49.00266 113.480996,42.65995 z M 79.449153,99.528074 c 2.79661,-1.879474 7.816623,-4.741692 11.155585,-6.360486 4.007452,-1.942891 5.840479,-3.543572 5.393078,-4.70948 -0.879015,-2.290677 -23.527877,-34.559803 -24.256628,-34.559803 -0.305112,0 -0.554747,11.474438 -0.554747,25.498751 0,20.071677 0.338194,25.291184 1.588983,24.523494 0.87394,-0.53639 3.877118,-2.513 6.673729,-4.392476 z M 232.35379,66.292373 231.99153,53.262712 220.07329,70.418308 c -6.55504,9.435579 -12.15244,17.765896 -12.43868,18.511817 -0.28623,0.745919 2.40008,2.724113 5.9696,4.395984 3.56951,1.671871 9.16692,4.849443 12.43867,7.061271 l 5.94865,4.02151 0.36226,-12.54343 c 0.19924,-6.898884 0.19924,-18.406774 0,-25.573087 z"
     id="path69"
     inkscape:connector-curvature="0" /><path
     style="fill:#f2f2f2;stroke-width:1.27118647"
     d="m 99.242905,174.97684 c -6.322928,-3.22414 -9.32628,-8.02615 -9.903867,-15.83514 -0.383711,-5.18778 0.09758,-7.67415 2.104002,-10.86942 10.78346,-17.17288 37.03343,-8.78044 35.31261,11.28989 -1.18477,13.81831 -15.22094,21.68241 -27.512745,15.41467 z M 116.5043,166.8547 c 5.95947,-5.59862 4.788,-15.96355 -2.21344,-19.58414 -9.16716,-4.74052 -19.048994,1.4054 -18.900982,11.7553 l 0.0509,3.55889 1.850745,-3.40847 c 3.229497,-5.9477 10.073787,-5.80091 13.331347,0.2859 1.47169,2.74988 1.01368,4.0453 -3.07893,8.70822 l -2.67106,3.04328 4.38804,-0.83826 c 2.41342,-0.46105 5.67295,-2.04537 7.24338,-3.52072 z"
     id="path71"
     inkscape:connector-curvature="0" /><path
     style="fill:#f2f2f2;stroke-width:1.27118647"
     d="m 111.45235,231.29041 c -7.65951,-2.73152 -18.65574,-10.56269 -18.65574,-13.28604 0,-4.17871 3.110971,-3.81131 10.65227,1.25801 12.69605,8.5344 20.93241,9.23909 32.79967,2.80627 l 5.95194,-3.22634 -5.22278,-10.53088 c -5.09334,-10.26987 -5.16924,-10.61259 -3.06247,-13.82793 2.07031,-3.15969 2.65576,-3.29706 14.05163,-3.29706 18.35899,0 19.05123,3.00199 6.17829,26.79291 -0.65706,1.21433 11.41213,7.25401 16.30921,8.16147 6.34936,1.17658 13.67397,-1.09124 22.34055,-6.91699 5.4089,-3.63591 7.81588,-4.60875 8.99065,-3.63378 2.86894,2.38101 1.72038,4.44433 -5.06947,9.10705 -16.26308,11.16816 -28.15126,11.07514 -46.13313,-0.36098 -2.26896,-1.44302 -3.3814,-1.15164 -8.85442,2.31925 -10.40264,6.59716 -20.45767,8.1365 -30.2762,4.63504 z m 41.07172,-24.81348 c 2.10753,-4.17498 3.83186,-7.8932 3.83186,-8.26271 0,-0.36952 -3.71822,-0.67185 -8.26271,-0.67185 -4.54449,0 -8.26271,0.47045 -8.26271,1.04545 0,1.31371 7.63212,15.47998 8.33989,15.47998 0.287,0 2.24615,-3.41589 4.35367,-7.59087 z"
     id="path73"
     inkscape:connector-curvature="0" /><path
     style="fill:#f2f2f2;stroke-width:1.27118647"
     d="m 186.84457,174.84648 c -8.81344,-4.68976 -12.47708,-16.51972 -7.9231,-25.58385 8.92344,-17.76101 35.88804,-10.99981 35.90429,9.00277 0.0116,14.27444 -15.28325,23.33785 -27.98119,16.58108 z m 15.15815,-5.84586 c 7.83257,-4.05037 8.42604,-16.56266 1.00034,-21.0904 -2.23431,-1.36234 -5.62645,-2.47913 -7.53809,-2.48174 -4.76466,-0.007 -10.94984,5.90355 -11.96828,11.43593 l -0.81903,4.44915 3.30386,-3.49576 c 3.91006,-4.13717 7.55425,-4.45152 11.05238,-0.95339 3.46862,3.46862 3.19055,7.1478 -0.82122,10.86578 -3.27596,3.03606 -3.29087,3.11727 -0.57246,3.11727 1.53511,0 4.39824,-0.83108 6.3625,-1.84684 z"
     id="path75"
     inkscape:connector-curvature="0" /></svg>