<?xml version="1.0" encoding="UTF-8" standalone="no"?>
<!-- Generator: Adobe Illustrator 19.0.0, SVG Export Plug-In . SVG Version: 6.00 Build 0)  -->

<svg
   xmlns:dc="http://purl.org/dc/elements/1.1/"
   xmlns:cc="http://creativecommons.org/ns#"
   xmlns:rdf="http://www.w3.org/1999/02/22-rdf-syntax-ns#"
   xmlns:svg="http://www.w3.org/2000/svg"
   xmlns="http://www.w3.org/2000/svg"
   xmlns:sodipodi="http://sodipodi.sourceforge.net/DTD/sodipodi-0.dtd"
   xmlns:inkscape="http://www.inkscape.org/namespaces/inkscape"
   version="1.1"
   id="Layer_1"
   x="0px"
   y="0px"
   viewBox="0 0 512 512"
   style="enable-background:new 0 0 512 512;"
   xml:space="preserve"
   sodipodi:docname="cat.svg"
   inkscape:version="0.92.4 (5da689c313, 2019-01-14)"><metadata
   id="metadata1048"><rdf:RDF><cc:Work
       rdf:about=""><dc:format>image/svg+xml</dc:format><dc:type
         rdf:resource="http://purl.org/dc/dcmitype/StillImage" /></cc:Work></rdf:RDF></metadata><defs
   id="defs1046" /><sodipodi:namedview
   pagecolor="#ffffff"
   bordercolor="#666666"
   borderopacity="1"
   objecttolerance="10"
   gridtolerance="10"
   guidetolerance="10"
   inkscape:pageopacity="0"
   inkscape:pageshadow="2"
   inkscape:window-width="1858"
   inkscape:window-height="1057"
   id="namedview1044"
   showgrid="false"
   inkscape:zoom="0.921875"
   inkscape:cx="284.36211"
   inkscape:cy="265.0415"
   inkscape:window-x="54"
   inkscape:window-y="-8"
   inkscape:window-maximized="1"
   inkscape:current-layer="Layer_1" />
<g
   id="g942"
   transform="matrix(0.88183155,0,0,0.88983029,30.793524,56.40678)"
   style="fill:#ffffff">
	<g
   id="g940"
   style="fill:#ffffff">
		<circle
   cx="93.000999"
   cy="122.066"
   r="11.429"
   id="circle938"
   style="fill:#ffffff" />
	</g>
</g>
<g
   id="g948"
   transform="matrix(0.88183155,0,0,0.88983029,30.793524,56.40678)"
   style="fill:#ffffff">
	<g
   id="g946"
   style="fill:#ffffff">
		<path
   d="m 199.706,166.954 c -2.863,-5.06 -9.291,-6.825 -14.339,-3.95 -1.017,0.573 -2.676,1.18 -4.78,0.736 -2.384,-0.503 -4.347,-2.255 -5.095,-4.569 l -0.012,0.012 c -1.017,-3.085 -3.412,-5.656 -6.72,-6.743 -5.528,-1.8 -11.465,1.215 -13.264,6.731 -0.76,2.314 -2.711,4.067 -5.107,4.569 -2.092,0.444 -3.751,-0.164 -4.78,-0.736 -5.049,-2.875 -11.464,-1.11 -14.339,3.95 -2.863,5.049 -1.099,11.465 3.95,14.339 4.219,2.396 8.964,3.635 13.755,3.635 1.905,0 3.833,-0.199 5.738,-0.596 3.95,-0.83 7.608,-2.513 10.763,-4.838 3.167,2.326 6.837,4.008 10.798,4.838 1.893,0.397 3.822,0.596 5.738,0.596 4.78,0 9.525,-1.239 13.743,-3.635 5.05,-2.874 6.826,-9.29 3.951,-14.339 z"
   id="path944"
   inkscape:connector-curvature="0"
   style="fill:#ffffff" />
	</g>
</g>
<g
   id="g954"
   transform="matrix(0.88183155,0,0,0.88983029,30.793524,56.40678)"
   style="fill:#ffffff">
	<g
   id="g952"
   style="fill:#ffffff">
		<circle
   cx="237.985"
   cy="122.066"
   r="11.429"
   id="circle950"
   style="fill:#ffffff" />
	</g>
</g>
<g
   id="g964"
   transform="matrix(0.88183155,0,0,0.88983029,30.793524,56.40678)"
   style="fill:#ffffff">
	<g
   id="g962"
   style="fill:#ffffff">
		<g
   id="g960"
   style="fill:#ffffff">
			<path
   d="m 423.791,344.933 c -0.729,-0.191 -1.481,-0.313 -2.246,-0.359 -1.147,-0.069 -2.324,0.031 -3.499,0.32 -6.264,1.543 -10.097,7.877 -8.555,14.141 4.85,19.657 1.858,40.12 -8.414,57.603 -3.272,5.563 -1.414,12.727 4.16,15.987 1.858,1.099 3.892,1.613 5.902,1.613 4.008,0 7.912,-2.057 10.086,-5.761 1.254,-2.135 2.426,-4.305 3.513,-6.504 1.087,-2.199 2.09,-4.429 3.009,-6.684 0.612,-1.503 1.187,-3.018 1.724,-4.544 2.417,-6.864 4.068,-13.936 4.939,-21.109 0.097,-0.797 0.184,-1.595 0.261,-2.394 0.155,-1.599 0.271,-3.201 0.349,-4.807 0.155,-3.212 0.155,-6.436 -0.002,-9.664 -0.078,-1.614 -0.196,-3.228 -0.353,-4.842 -0.235,-2.421 -0.559,-4.841 -0.972,-7.255 -0.275,-1.61 -0.59,-3.217 -0.945,-4.821 -0.177,-0.802 -0.365,-1.603 -0.562,-2.403 -0.328,-1.332 -0.883,-2.545 -1.598,-3.629 -0.336,-0.509 -0.698,-0.996 -1.104,-1.441 -0.254,-0.279 -0.521,-0.544 -0.799,-0.796 -0.445,-0.402 -0.926,-0.758 -1.425,-1.087 -1.061,-0.702 -2.229,-1.239 -3.469,-1.564 z"
   id="path956"
   inkscape:connector-curvature="0"
   style="fill:#ffffff" />
			<path
   d="m 490.036,373.97 c 0.012,-0.222 0.035,-0.456 0.035,-0.69 V 145.848 c 0,-11.862 -4.616,-23.011 -12.995,-31.367 -8.391,-8.368 -19.517,-12.984 -31.355,-12.984 -24.46,0 -44.351,19.891 -44.351,44.351 V 234.28 L 300.106,170.32 c 5.843,-16.455 8.952,-33.739 8.952,-50.965 V 24.273 C 309.058,10.892 298.166,0 284.785,0 c -6.159,0 -12.037,2.314 -16.536,6.509 -0.105,0.094 -0.199,0.187 -0.304,0.292 L 226.54,48.207 C 207.935,37.771 187.028,32.29 165.489,32.29 c -21.538,0 -42.457,5.481 -61.051,15.917 L 63.032,6.802 C 62.927,6.697 62.833,6.603 62.728,6.51 58.229,2.314 52.351,0 46.192,0 32.811,0 21.919,10.892 21.919,24.273 v 95.082 c 0,38.133 15.204,76.617 41.698,105.588 10.506,11.488 22.251,21.001 34.861,28.398 -0.619,7.573 -0.83,15.263 -0.619,22.952 0.923,34.452 10.202,68.331 26.821,98.296 v 66.368 h -0.444 c -19.587,0 -35.527,15.929 -35.527,35.515 v 13.077 c 0,12.376 10.074,22.45 22.438,22.45 h 60.49 c 15.228,0 28.223,-9.77 33.05,-23.373 h 12.224 v 0.257 c 0,12.738 10.366,23.116 23.104,23.116 h 133.648 c 34.522,0 67.315,-16.653 87.696,-44.526 0.012,0 0.012,-0.012 0.012,-0.012 2.185,-2.968 4.254,-6.124 6.159,-9.396 0.035,-0.047 0.058,-0.093 0.094,-0.14 0.07,-0.128 0.152,-0.257 0.234,-0.397 15.738,-26.235 22.867,-55.113 22.178,-83.558 z M 80.854,209.166 c -2.419,-2.653 -4.721,-5.399 -6.918,-8.227 l 8.449,-0.713 c 6.428,-0.549 11.207,-6.206 10.658,-12.633 -0.538,-6.439 -6.194,-11.207 -12.633,-10.658 l -20.603,1.741 c -2.115,-4.16 -3.997,-8.426 -5.668,-12.762 l 25.734,3.412 c 0.514,0.07 1.028,0.093 1.543,0.093 5.773,0 10.798,-4.266 11.57,-10.144 0.853,-6.404 -3.646,-12.283 -10.05,-13.124 L 47.28,141.418 c -1.297,-7.304 -1.987,-14.69 -1.987,-22.064 V 24.273 c 0,-0.491 0.409,-0.9 0.9,-0.9 0.082,0 0.304,0 0.538,0.175 l 47.693,47.705 c 3.95,3.938 10.121,4.546 14.76,1.449 16.688,-11.149 36.158,-17.039 56.306,-17.039 20.136,0 39.617,5.89 56.306,17.039 4.64,3.097 10.81,2.489 14.76,-1.449 l 47.693,-47.705 c 0.234,-0.175 0.456,-0.175 0.538,-0.175 0.491,0 0.9,0.409 0.9,0.9 v 95.082 c 0,7.374 -0.678,14.76 -1.987,22.064 l -35.667,4.733 c -6.393,0.841 -10.892,6.72 -10.05,13.124 0.783,5.878 5.797,10.144 11.57,10.144 0.514,0 1.028,-0.035 1.554,-0.094 l 25.734,-3.412 c -1.659,4.336 -3.553,8.601 -5.668,12.762 l -20.615,-1.741 c -6.439,-0.549 -12.084,4.219 -12.633,10.658 -0.538,6.428 4.231,12.084 10.658,12.633 l 8.461,0.713 c -2.197,2.828 -4.499,5.574 -6.918,8.227 -23.174,25.325 -53.232,39.267 -84.634,39.267 -31.402,0 -61.463,-13.942 -84.638,-39.267 z m 367.017,236.244 -5.539,8.484 c -16.022,21.749 -41.674,34.732 -68.67,34.732 H 240.282 V 475 c 0,-7.514 6.1,-13.627 13.615,-13.627 h 34.581 c 4.125,0 7.935,-2.174 10.05,-5.726 2.104,-3.541 2.185,-7.935 0.21,-11.558 -6.766,-12.411 -10.343,-26.505 -10.343,-40.739 0,-47.027 38.25,-85.277 85.265,-85.277 6.451,0 11.687,-5.236 11.687,-11.687 0,-6.463 -5.236,-11.687 -11.687,-11.687 -59.905,0 -108.638,48.733 -108.638,108.65 0,11.803 1.928,23.525 5.656,34.651 h -16.782 c -17.027,0 -31.39,11.57 -35.679,27.253 h -11.523 v -74.712 c 0,-6.463 -5.236,-11.687 -11.687,-11.687 -6.463,0 -11.687,5.224 -11.687,11.687 v 86.399 c 0,6.439 -5.247,11.687 -11.687,11.687 h -59.555 v -12.154 c 0,-6.696 5.458,-12.142 12.154,-12.142 h 12.131 c 6.451,0 11.687,-5.236 11.687,-11.687 v -77.949 c 0.631,-2.781 0.269,-5.797 -1.274,-8.461 -15.87,-27.405 -24.705,-58.725 -25.547,-90.571 -0.105,-3.88 -0.082,-7.76 0.047,-11.616 14.164,5.107 29.041,7.76 44.21,7.76 38.051,0 74.221,-16.642 101.872,-46.863 9.151,-10.004 16.946,-21.129 23.233,-32.991 l 110.8,69.979 c 63.659,40.177 84.04,120.745 46.48,183.478 z m 18.827,-149.997 v 0 c -10.6,-17.284 -24.67,-32.898 -41.955,-45.765 v -103.8 c 0,-11.57 9.408,-20.977 20.977,-20.977 5.598,0 10.868,2.185 14.842,6.147 3.95,3.95 6.135,9.221 6.135,14.83 v 149.565 z"
   id="path958"
   inkscape:connector-curvature="0"
   style="fill:#ffffff" />
		</g>
	</g>
</g>
<g
   id="g970"
   transform="matrix(0.88183155,0,0,0.88983029,30.793524,56.40678)"
   style="fill:#ffffff">
	<g
   id="g968"
   style="fill:#ffffff">
		<circle
   cx="93.000999"
   cy="122.066"
   r="11.429"
   id="circle966"
   style="fill:#ffffff" />
	</g>
</g>
<g
   id="g976"
   transform="matrix(0.88183155,0,0,0.88983029,30.793524,56.40678)"
   style="fill:#ffffff">
	<g
   id="g974"
   style="fill:#ffffff">
		<path
   d="m 199.706,166.954 c -2.863,-5.06 -9.291,-6.825 -14.339,-3.95 -1.017,0.573 -2.676,1.18 -4.78,0.736 -2.384,-0.503 -4.347,-2.256 -5.095,-4.569 l -0.012,0.012 c -1.017,-3.085 -3.412,-5.656 -6.72,-6.743 -5.528,-1.8 -11.465,1.215 -13.264,6.732 -0.76,2.314 -2.711,4.067 -5.107,4.569 -2.092,0.444 -3.751,-0.164 -4.78,-0.736 -5.049,-2.875 -11.464,-1.11 -14.339,3.95 -2.863,5.049 -1.099,11.465 3.95,14.339 4.219,2.396 8.964,3.635 13.755,3.635 1.905,0 3.833,-0.199 5.738,-0.596 3.95,-0.83 7.608,-2.513 10.763,-4.838 3.167,2.326 6.837,4.008 10.798,4.838 1.893,0.397 3.822,0.596 5.738,0.596 4.78,0 9.525,-1.239 13.743,-3.635 5.05,-2.875 6.826,-9.291 3.951,-14.34 z"
   id="path972"
   inkscape:connector-curvature="0"
   style="fill:#ffffff" />
	</g>
</g>
<g
   id="g982"
   transform="matrix(0.88183155,0,0,0.88983029,30.793524,56.40678)"
   style="fill:#ffffff">
	<g
   id="g980"
   style="fill:#ffffff">
		<circle
   cx="237.985"
   cy="122.066"
   r="11.429"
   id="circle978"
   style="fill:#ffffff" />
	</g>
</g>
<g
   id="SVGCleanerId_0"
   transform="matrix(0.88183155,0,0,0.88983029,30.793524,56.40678)"
   style="fill:#ffffff">
	<g
   id="g986"
   style="fill:#ffffff">
		<path
   d="m 432.187,353.448 c -1.543,-6.264 -7.877,-10.097 -14.141,-8.555 -6.264,1.543 -10.097,7.877 -8.555,14.141 4.85,19.657 1.858,40.12 -8.414,57.603 -3.272,5.563 -1.414,12.727 4.16,15.987 1.858,1.099 3.892,1.613 5.902,1.613 4.008,0 7.912,-2.057 10.086,-5.761 13.381,-22.777 17.273,-49.422 10.962,-75.028 z"
   id="path984"
   inkscape:connector-curvature="0"
   style="fill:#ffffff" />
	</g>
</g>
<g
   id="g993"
   transform="matrix(0.88183155,0,0,0.88983029,30.793524,56.40678)"
   style="fill:#ffffff">
	<g
   id="g991"
   style="fill:#ffffff">
		<circle
   cx="93.000999"
   cy="122.066"
   r="11.429"
   id="circle989"
   style="fill:#ffffff" />
	</g>
</g>
<g
   id="g999"
   transform="matrix(0.88183155,0,0,0.88983029,30.793524,56.40678)"
   style="fill:#ffffff">
	<g
   id="g997"
   style="fill:#ffffff">
		<circle
   cx="237.985"
   cy="122.066"
   r="11.429"
   id="circle995"
   style="fill:#ffffff" />
	</g>
</g>
<g
   id="g1005"
   transform="matrix(0.88183155,0,0,0.88983029,30.793524,56.40678)"
   style="fill:#ffffff">
	<g
   id="g1003"
   style="fill:#ffffff">
		<path
   d="m 199.706,166.954 c -2.863,-5.06 -9.291,-6.825 -14.339,-3.95 -1.017,0.573 -2.676,1.18 -4.78,0.736 -2.384,-0.503 -4.347,-2.256 -5.095,-4.569 l -0.012,0.012 c -1.017,-3.085 -3.412,-5.656 -6.72,-6.743 -5.528,-1.8 -11.465,1.215 -13.264,6.732 -0.76,2.314 -2.711,4.067 -5.107,4.569 -2.092,0.444 -3.751,-0.164 -4.78,-0.736 -5.049,-2.875 -11.464,-1.11 -14.339,3.95 -2.863,5.049 -1.099,11.465 3.95,14.339 4.219,2.396 8.964,3.635 13.755,3.635 1.905,0 3.833,-0.199 5.738,-0.596 3.95,-0.83 7.608,-2.513 10.763,-4.838 3.167,2.326 6.837,4.008 10.798,4.838 1.893,0.397 3.822,0.596 5.738,0.596 4.78,0 9.525,-1.239 13.743,-3.635 5.05,-2.875 6.826,-9.291 3.951,-14.34 z"
   id="path1001"
   inkscape:connector-curvature="0"
   style="fill:#ffffff" />
	</g>
</g>
<g
   id="g1011"
   transform="matrix(0.88183155,0,0,0.88983029,30.793524,56.40678)"
   style="fill:#ffffff">
	<g
   id="g1009"
   style="fill:#ffffff">
		<path
   d="m 432.187,353.448 c -1.543,-6.264 -7.877,-10.097 -14.141,-8.555 -6.264,1.543 -10.097,7.877 -8.555,14.141 4.85,19.657 1.858,40.12 -8.414,57.603 -3.272,5.563 -1.414,12.727 4.16,15.987 1.858,1.099 3.892,1.613 5.902,1.613 4.008,0 7.912,-2.057 10.086,-5.761 13.381,-22.777 17.273,-49.422 10.962,-75.028 z"
   id="path1007"
   inkscape:connector-curvature="0"
   style="fill:#ffffff" />
	</g>
</g>
<g
   id="g1013"
   transform="matrix(0.88183155,0,0,0.88983029,30.793524,56.40678)"
   style="fill:#ffffff">
</g>
<g
   id="g1015"
   transform="matrix(0.88183155,0,0,0.88983029,30.793524,56.40678)"
   style="fill:#ffffff">
</g>
<g
   id="g1017"
   transform="matrix(0.88183155,0,0,0.88983029,30.793524,56.40678)"
   style="fill:#ffffff">
</g>
<g
   id="g1019"
   transform="matrix(0.88183155,0,0,0.88983029,30.793524,56.40678)"
   style="fill:#ffffff">
</g>
<g
   id="g1021"
   transform="matrix(0.88183155,0,0,0.88983029,30.793524,56.40678)"
   style="fill:#ffffff">
</g>
<g
   id="g1023"
   transform="matrix(0.88183155,0,0,0.88983029,30.793524,56.40678)"
   style="fill:#ffffff">
</g>
<g
   id="g1025"
   transform="matrix(0.88183155,0,0,0.88983029,30.793524,56.40678)"
   style="fill:#ffffff">
</g>
<g
   id="g1027"
   transform="matrix(0.88183155,0,0,0.88983029,30.793524,56.40678)"
   style="fill:#ffffff">
</g>
<g
   id="g1029"
   transform="matrix(0.88183155,0,0,0.88983029,30.793524,56.40678)"
   style="fill:#ffffff">
</g>
<g
   id="g1031"
   transform="matrix(0.88183155,0,0,0.88983029,30.793524,56.40678)"
   style="fill:#ffffff">
</g>
<g
   id="g1033"
   transform="matrix(0.88183155,0,0,0.88983029,30.793524,56.40678)"
   style="fill:#ffffff">
</g>
<g
   id="g1035"
   transform="matrix(0.88183155,0,0,0.88983029,30.793524,56.40678)"
   style="fill:#ffffff">
</g>
<g
   id="g1037"
   transform="matrix(0.88183155,0,0,0.88983029,30.793524,56.40678)"
   style="fill:#ffffff">
</g>
<g
   id="g1039"
   transform="matrix(0.88183155,0,0,0.88983029,30.793524,56.40678)"
   style="fill:#ffffff">
</g>
<g
   id="g1041"
   transform="matrix(0.88183155,0,0,0.88983029,30.793524,56.40678)"
   style="fill:#ffffff">
</g>
</svg>