<?xml version="1.0" encoding="UTF-8" standalone="no"?>
<svg
   xmlns:dc="http://purl.org/dc/elements/1.1/"
   xmlns:cc="http://creativecommons.org/ns#"
   xmlns:rdf="http://www.w3.org/1999/02/22-rdf-syntax-ns#"
   xmlns:svg="http://www.w3.org/2000/svg"
   xmlns="http://www.w3.org/2000/svg"
   xmlns:sodipodi="http://sodipodi.sourceforge.net/DTD/sodipodi-0.dtd"
   xmlns:inkscape="http://www.inkscape.org/namespaces/inkscape"
   id="dog2"
   style="enable-background:new 0 0 300 300;"
   version="1.1"
   viewBox="0 0 300 300"
   xml:space="preserve"
   sodipodi:docname="dog.svg"
   inkscape:version="0.92.4 (5da689c313, 2019-01-14)"><metadata
     id="metadata4185"><rdf:RDF><cc:Work
         rdf:about=""><dc:format>image/svg+xml</dc:format><dc:type
           rdf:resource="http://purl.org/dc/dcmitype/StillImage" /></cc:Work></rdf:RDF></metadata><defs
     id="defs4183" /><sodipodi:namedview
     pagecolor="#ffffff"
     bordercolor="#666666"
     borderopacity="1"
     objecttolerance="10"
     gridtolerance="10"
     guidetolerance="10"
     inkscape:pageopacity="0"
     inkscape:pageshadow="2"
     inkscape:window-width="640"
     inkscape:window-height="812"
     id="namedview4181"
     showgrid="false"
     inkscape:zoom="0.78666667"
     inkscape:cx="150"
     inkscape:cy="150"
     inkscape:window-x="421"
     inkscape:window-y="133"
     inkscape:window-maximized="0"
     inkscape:current-layer="dog2" /><g
     id="g4148"><path
       d="   M93.999,46.961c-16.535-7.29-37.522-0.79-48.812,15.867c-12.279,18.117-8.438,41.386,8.579,51.974   c4.472,2.782,9.409,4.412,14.481,4.974"
       style="fill-rule:evenodd;clip-rule:evenodd;fill:none;stroke:#000000;stroke-width:8;stroke-linecap:round;stroke-linejoin:round;stroke-miterlimit:10;"
       id="path4120" /><path
       d="   M210.799,48.58c16.934-9.72,39.981-3.505,52.013,14.249c12.28,18.117,8.439,41.386-8.579,51.974   c-5.769,3.589-12.311,5.26-18.918,5.196"
       style="fill-rule:evenodd;clip-rule:evenodd;fill:none;stroke:#000000;stroke-width:8;stroke-linecap:round;stroke-linejoin:round;stroke-miterlimit:10;"
       id="path4122" /><path
       d="   M166,248.813v7.199c0,6.62-5.399,11.988-12.037,11.988h-3.926c-6.648,0-12.037-5.388-12.037-11.988v-6.013"
       style="fill-rule:evenodd;clip-rule:evenodd;fill:none;stroke:#000000;stroke-width:8;stroke-linecap:round;stroke-linejoin:round;stroke-miterlimit:10;"
       id="path4124" /><path
       d="   M70,148V94c0-29.824,24.199-54,53.984-54h56.033C209.831,40,234,64.172,234,94v54"
       style="fill-rule:evenodd;clip-rule:evenodd;fill:none;stroke:#000000;stroke-width:8;stroke-linecap:round;stroke-linejoin:round;stroke-miterlimit:10;"
       id="path4126" /><path
       d="   M98,118.536v-20.56C98,85.84,107.875,76,120,76c12.15,0,22,9.84,22,21.976v16.543"
       style="fill-rule:evenodd;clip-rule:evenodd;fill:none;stroke:#000000;stroke-width:8;stroke-linecap:round;stroke-linejoin:round;stroke-miterlimit:10;"
       id="path4128" /><circle
       cx="122"
       cy="100"
       r="8"
       style="fill-rule:evenodd;clip-rule:evenodd;"
       id="circle4130" /><path
       d="   M166,118.536v-20.56C166,85.84,175.875,76,188,76c12.15,0,22,9.84,22,21.976v22.022"
       style="fill-rule:evenodd;clip-rule:evenodd;fill:none;stroke:#000000;stroke-width:8;stroke-linecap:round;stroke-linejoin:round;stroke-miterlimit:10;"
       id="path4132" /><circle
       cx="186"
       cy="100"
       r="8"
       style="fill-rule:evenodd;clip-rule:evenodd;"
       id="circle4134" /><path
       d="   M135.148,119.247C129.744,117.139,123.981,116,118,116c-30.928,0-56,30.444-56,68s25.072,68,56,68c12.787,0,24.573-5.204,34-13.964   c9.427,8.76,21.213,13.964,34,13.964c30.928,0,56-30.444,56-68s-25.072-68-56-68c-5.764,0-11.326,1.058-16.559,3.022"
       style="fill-rule:evenodd;clip-rule:evenodd;fill:none;stroke:#000000;stroke-width:8;stroke-linecap:round;stroke-linejoin:round;stroke-miterlimit:10;"
       id="path4136" /><path
       d="   M152,148c9.941,0,26-0.06,26-10s-16.059-26-26-26s-26,16.06-26,26S142.059,148,152,148z"
       style="fill-rule:evenodd;clip-rule:evenodd;fill:none;stroke:#000000;stroke-width:8;stroke-linecap:round;stroke-linejoin:round;stroke-miterlimit:10;"
       id="path4138" /><line
       style="fill:none;stroke:#000000;stroke-width:8;stroke-linecap:round;stroke-linejoin:round;stroke-miterlimit:10;"
       x1="198"
       x2="262"
       y1="176"
       y2="164"
       id="line4140" /><line
       style="fill:none;stroke:#000000;stroke-width:8;stroke-linecap:round;stroke-linejoin:round;stroke-miterlimit:10;"
       x1="202"
       x2="258"
       y1="192"
       y2="196"
       id="line4142" /><line
       style="fill:none;stroke:#000000;stroke-width:8;stroke-linecap:round;stroke-linejoin:round;stroke-miterlimit:10;"
       x1="102"
       x2="38"
       y1="176"
       y2="164"
       id="line4144" /><line
       style="fill:none;stroke:#000000;stroke-width:8;stroke-linecap:round;stroke-linejoin:round;stroke-miterlimit:10;"
       x1="98"
       x2="42"
       y1="192"
       y2="196"
       id="line4146" /></g><g
     id="g4150" /><g
     id="g4152" /><g
     id="g4154" /><g
     id="g4156" /><g
     id="g4158" /><g
     id="g4160" /><g
     id="g4162" /><g
     id="g4164" /><g
     id="g4166" /><g
     id="g4168" /><g
     id="g4170" /><g
     id="g4172" /><g
     id="g4174" /><g
     id="g4176" /><g
     id="g4178" /><path
     style="fill:#ececec;stroke-width:1.27118647"
     d="m 142.3914,268.74033 c -5.01352,-3.40776 -7.59942,-7.70841 -7.6269,-12.68447 -0.0182,-3.30436 -0.1433,-3.35891 -4.77117,-2.08108 -2.61384,0.72171 -9.42363,1.06703 -15.13288,0.76737 -8.52541,-0.44747 -11.93551,-1.30725 -19.082311,-4.81117 -15.637568,-7.66674 -28.794147,-24.60066 -34.189,-44.00488 l -2.148596,-7.72807 -9.515426,0.61066 c -6.96786,0.44717 -9.788361,0.16904 -10.534865,-1.03883 -2.096542,-3.39227 0.270129,-4.78306 9.632054,-5.66035 l 9.45227,-0.88575 0.01735,-7.20086 c 0.0095,-3.96047 0.342411,-8.41196 0.739697,-9.89218 0.672273,-2.50478 -0.128254,-2.84447 -11.549326,-4.90089 -12.16663,-2.19066 -15.472064,-4.15193 -12.316184,-7.30781 1.260338,-1.26034 12.927328,-0.0645 22.472868,2.30346 2.147085,0.53263 2.987113,-0.61318 5.402804,-7.36944 2.260177,-6.32131 2.860376,-10.73435 2.86017,-21.02977 -1.92e-4,-9.56951 -0.422232,-13.03296 -1.589245,-13.04208 -3.591711,-0.0281 -14.810813,-6.34017 -19.077423,-10.73336 -13.226125,-13.618509 -14.28944,-34.018194 -2.66643,-51.155455 10.342927,-15.249872 29.85351,-23.289166 46.10138,-18.995974 6.241652,1.649239 7.363491,1.609768 12.113193,-0.42619 10.02451,-4.297008 18.18723,-5.117279 50.92335,-5.117279 33.70534,0 41.04214,0.797928 52.11864,5.668272 5.90587,2.596814 6.67097,2.659972 10.80509,0.891955 6.64495,-2.841818 20.7993,-2.432766 29.23729,0.844938 21.75781,8.451753 34.52861,34.559148 26.84677,54.882971 -1.45344,3.845342 -4.37857,9.096122 -6.50029,11.668402 -4.36947,5.29737 -17.66283,12.48414 -23.09189,12.48414 h -3.61053 v 12.89915 c 0,10.04627 0.60733,14.56478 2.74598,20.43026 l 2.74599,7.53112 6.47011,-0.98439 c 11.65924,-1.77389 15.36843,-1.42792 15.36843,1.43347 0,2.14165 -1.55208,2.86587 -9.93012,4.63351 -5.46158,1.1523 -10.04755,2.29815 -10.19107,2.54633 -0.1435,0.24818 -0.0652,4.82158 0.17398,10.16313 0.4337,9.68503 0.44564,9.71405 4.31182,10.48729 2.1323,0.42646 5.46032,0.77538 7.39558,0.77538 3.55161,0 5.15201,1.84586 4.13307,4.76695 -0.36528,1.04717 -3.31889,1.58899 -8.66206,1.58899 h -8.10778 l -1.3726,5.40254 c -5.38127,21.18066 -18.06646,37.55502 -35.5898,45.94022 -7.45435,3.56704 -9.44415,3.95385 -20.33898,3.95385 -6.64195,0 -13.36335,-0.46757 -14.93644,-1.03906 -2.62718,-0.95441 -2.86017,-0.66811 -2.86017,3.51444 0,3.38893 -1.0843,5.73665 -4.23972,9.17981 -3.66737,4.00179 -5.16892,4.70097 -11.12288,5.17931 -5.71163,0.45886 -7.63727,0.0404 -11.3138,-2.45858 z m 18.09589,-7.52906 c 1.22352,-1.47365 2.22457,-4.58677 2.22457,-6.91804 0,-3.55062 -0.87498,-4.84483 -5.39021,-7.97279 l -5.39021,-3.73411 -5.41487,3.72553 c -4.48549,3.0861 -5.41488,4.43014 -5.41488,7.83076 0,5.01874 2.86514,9.37968 6.68492,10.17494 4.90478,1.02114 10.38708,-0.3197 12.70068,-3.10629 z m -25.04525,-16.27664 c 3.22398,-1.42612 8.04374,-4.32109 10.71059,-6.43328 2.66685,-2.11218 5.1942,-3.84033 5.61634,-3.84033 0.42213,0 3.486,1.95105 6.8086,4.33566 9.58817,6.88141 16.13123,9.01179 27.67798,9.01179 8.90326,0 11.2447,-0.51616 18.46458,-4.0705 14.68847,-7.23111 26.43605,-22.16223 30.9752,-39.36937 l 1.7295,-6.55624 -12.25055,-0.82403 c -22.30393,-1.50024 -26.2336,-2.26718 -26.2336,-5.11989 0,-2.27375 0.85019,-2.53276 8.26271,-2.51725 4.54449,0.009 13.41102,0.29553 19.70339,0.63559 l 11.44068,0.6183 -0.2024,-8.67697 c -0.11136,-4.77233 -0.47312,-8.94771 -0.80403,-9.2786 -0.33089,-0.33089 -9.39235,1.06677 -20.13658,3.10593 -16.57926,3.14658 -19.81659,3.44453 -21.39634,1.96927 -3.43438,-3.20724 1.13978,-5.22682 19.65799,-8.67944 9.78814,-1.82494 18.49489,-3.55952 19.34832,-3.8546 1.77791,-0.61472 -0.22376,-7.43119 -5.04212,-17.17033 -3.71006,-7.49898 -16.60969,-20.40264 -23.88452,-23.89199 -7.70361,-3.69501 -18.13376,-5.55088 -25.61725,-4.55816 -3.36489,0.44637 -6.11799,0.96582 -6.11799,1.15432 0,0.18851 1.7161,3.60511 3.81356,7.59244 4.34935,8.26826 4.52316,9.55911 1.95562,14.52421 -3.04169,5.88199 -9.98157,7.81235 -28.0863,7.81235 -16.70603,0 -22.04916,-1.27363 -26.55603,-6.33012 -3.37653,-3.78832 -2.96987,-10.27072 1.07759,-17.17717 1.81722,-3.10086 3.30404,-5.89139 3.30404,-6.20118 0,-1.44787 -12.96626,-2.04794 -19.10324,-0.88408 -10.16364,1.92749 -17.521716,5.97338 -25.733437,14.14971 -6.731816,6.7028 -14.063649,19.22601 -16.761872,28.63029 -0.874409,3.04762 -0.627464,3.12725 23.090822,7.44528 12.301537,2.23956 16.204077,4.49555 12.974797,7.50052 -1.49153,1.38793 -4.863041,1.09129 -19.802143,-1.7423 l -18.004562,-3.41503 -0.4849,5.80985 c -0.266696,3.19544 -0.2355,7.16986 0.06932,8.83208 l 0.554223,3.02222 16.982475,-0.89997 c 15.116739,-0.80111 17.070777,-0.66987 17.786227,1.19458 0.44207,1.15201 0.29641,2.60192 -0.32369,3.22203 -0.6201,0.62009 -8.202543,1.70041 -16.849874,2.40071 -8.647331,0.70029 -16.052116,1.60296 -16.455076,2.00593 -0.402961,0.40295 -0.02625,3.43143 0.837146,6.72993 5.191354,19.83306 20.782897,36.88674 38.252614,41.83984 7.69527,2.1818 21.39057,1.20439 28.75218,-2.052 z M 169.0678,142.74605 c 3.0506,-1.04031 4.57642,-2.41309 4.85402,-4.3672 0.90574,-6.37559 -9.79479,-18.9765 -18.77213,-22.10601 -4.71057,-1.64212 -10.56484,0.92854 -17.22011,7.56147 -9.51472,9.48279 -10.67219,16.35808 -3.18382,18.91174 5.7532,1.96193 28.56884,1.96193 34.32204,0 z m -80.163439,-20.68384 4.842021,-3.2043 0.581658,-13.60269 C 94.788301,94.491545 95.497491,90.51129 97.726019,86.184393 104.2245,73.566981 121.42625,69.119827 133.6781,76.889725 c 7.89686,5.008036 11.23715,12.069059 11.23715,23.754115 v 8.8242 l 6.03814,-0.009 c 3.32097,-0.005 7.32521,0.45813 8.8983,1.02961 2.79875,1.01674 2.86077,0.8393 2.88809,-8.26271 0.0317,-10.550682 2.5561,-17.43493 8.3923,-22.886148 12.994,-12.13687 36.36362,-5.655211 41.10011,11.399284 0.72212,2.60011 1.31615,10.590824 1.32004,17.757134 0.004,7.16631 0.51619,13.02966 1.13841,13.02966 0.62222,0 4.38097,3.19814 8.35276,7.10699 l 7.22145,7.10698 -0.40785,-27.76376 C 229.45885,80.872171 229.36743,80.037475 226.0131,72.879346 221.58745,63.435044 210.63275,52.480347 201.18845,48.054699 l -7.33252,-3.436055 -39.24683,-0.386458 c -34.16396,-0.336407 -40.1394,-0.105712 -46.13866,1.781285 -14.862695,4.674893 -27.628857,17.396473 -32.220231,32.107718 -2.15378,6.900938 -2.521395,11.710698 -2.521395,32.989121 v 24.91031 l 5.166762,-5.37706 c 2.84172,-2.95738 7.345672,-6.81899 10.008785,-8.58135 z M 68.613731,79.597558 c 2.39575,-8.756739 7.303355,-17.548253 13.484744,-24.156658 3.087364,-3.300642 5.613389,-6.37087 5.613389,-6.822728 0,-0.451859 -3.330302,-0.821562 -7.40067,-0.821562 -11.323776,0 -18.815662,3.146576 -27.015563,11.346478 -8.207931,8.207929 -11.346478,15.691995 -11.346478,27.056391 0,12.652687 5.882693,22.012591 17.109069,27.222091 l 6.40788,2.97351 0.794214,-15.54923 c 0.436819,-8.552083 1.495856,-18.113813 2.353415,-21.248292 z M 206.92494,104.49425 c -0.48472,-9.266867 -1.24088,-12.943124 -3.37122,-16.390087 -3.6235,-5.862941 -10.32322,-9.002958 -17.48653,-8.195552 -11.82106,1.332406 -16.92531,9.018916 -16.97148,25.557449 -0.0273,9.78462 0.0337,9.98131 2.83226,9.13433 6.33483,-1.91721 19.52344,-2.06593 25.74152,-0.29027 10.50235,2.99909 9.95605,3.57847 9.25545,-9.81587 z m 39.83847,9.98558 c 21.9466,-7.74321 26.26486,-37.967367 7.96875,-55.774564 -7.55807,-7.3561 -13.70396,-9.986297 -24.64741,-10.548124 -13.22369,-0.678892 -14.56233,0.576777 -7.91554,7.424879 10.78959,11.116383 15.54265,25.911429 15.54265,48.380259 0,13.94497 -0.15437,13.76559 9.05155,10.51755 z m -128.54307,-1.17309 c 4.54449,0.0242 10.83686,0.31023 13.98305,0.63559 l 5.72034,0.59157 0.34145,-10.16949 c 0.25938,-7.725166 -0.19893,-11.232798 -1.90678,-14.593309 -6.60361,-12.993821 -24.47352,-13.544663 -32.12798,-0.990347 -2.00966,3.296105 -2.52697,6.410119 -2.53075,15.234076 l -0.005,11.0911 4.13135,-0.92161 c 2.27225,-0.50688 7.84958,-0.9018 12.39407,-0.87758 z"
     id="path4187"
     inkscape:connector-curvature="0" /><path
     style="fill:#ececec;stroke-width:1.27118647"
     d="m 116.94915,105 c -1.3983,-1.39831 -2.54237,-3.68644 -2.54237,-5.084746 0,-3.178369 4.3195,-7.627118 7.40553,-7.627118 2.85268,0 7.84871,5.109423 7.84871,8.026844 0,2.93546 -4.52931,7.22739 -7.62712,7.22739 -1.39831,0 -3.68644,-1.14406 -5.08475,-2.54237 z"
     id="path4189"
     inkscape:connector-curvature="0" /><path
     style="fill:#ececec;stroke-width:1.27118647"
     d="m 181.34109,105.2177 c -3.00271,-3.31795 -2.6557,-8.585278 0.72142,-10.950703 3.73387,-2.615305 5.55581,-2.496137 8.61546,0.563511 3.37331,3.373317 3.24447,8.262372 -0.28285,10.733002 -3.71925,2.60507 -6.47892,2.49967 -9.05403,-0.34581 z"
     id="path4191"
     inkscape:connector-curvature="0" /></svg>