<?xml version="1.0" encoding="UTF-8" standalone="no"?>
<svg
   xmlns:dc="http://purl.org/dc/elements/1.1/"
   xmlns:cc="http://creativecommons.org/ns#"
   xmlns:rdf="http://www.w3.org/1999/02/22-rdf-syntax-ns#"
   xmlns:svg="http://www.w3.org/2000/svg"
   xmlns="http://www.w3.org/2000/svg"
   xmlns:sodipodi="http://sodipodi.sourceforge.net/DTD/sodipodi-0.dtd"
   xmlns:inkscape="http://www.inkscape.org/namespaces/inkscape"
   enable-background="new 0 0 64 64"
   height="64px"
   id="Layer_1"
   version="1.1"
   viewBox="0 0 64 64"
   width="64px"
   xml:space="preserve"
   sodipodi:docname="fish.svg"
   inkscape:version="0.92.4 (5da689c313, 2019-01-14)"><metadata
     id="metadata23"><rdf:RDF><cc:Work
         rdf:about=""><dc:format>image/svg+xml</dc:format><dc:type
           rdf:resource="http://purl.org/dc/dcmitype/StillImage" /></cc:Work></rdf:RDF></metadata><defs
     id="defs21" /><sodipodi:namedview
     pagecolor="#ffffff"
     bordercolor="#666666"
     borderopacity="1"
     objecttolerance="10"
     gridtolerance="10"
     guidetolerance="10"
     inkscape:pageopacity="0"
     inkscape:pageshadow="2"
     inkscape:window-width="640"
     inkscape:window-height="854"
     id="namedview19"
     showgrid="false"
     inkscape:zoom="3.6875"
     inkscape:cx="32"
     inkscape:cy="32"
     inkscape:window-x="359"
     inkscape:window-y="65"
     inkscape:window-maximized="0"
     inkscape:current-layer="Layer_1" /><g
     id="g16"><g
       id="g4"><path
         d="M50.123,42.428v7.295c0,0.729-0.707,0.41-1.12,0.183l-4.367-2.745c-6.289,6.972-16.276,6.767-21.718-1.303    c0,0,9.945-11.818,21.949-0.824l3.635-2.605c0,0,0.022,0,0.046-0.022l0.068-0.046C48.957,42.109,50.123,41.354,50.123,42.428z"
         fill="#241F20"
         id="path2" /></g><circle
       cx="28.074"
       cy="32.793"
       fill="#241F20"
       r="3.926"
       id="circle6" /><circle
       cx="38.085"
       cy="26.667"
       fill="#241F20"
       r="2.203"
       id="circle8" /><path
       d="M35.882,14.542c0,1.624-1.319,2.941-2.947,2.941c-1.622,0-2.94-1.317-2.94-2.941   c0-1.628,1.319-2.944,2.94-2.944C34.562,11.598,35.882,12.914,35.882,14.542z"
       fill="#241F20"
       id="path10" /><path
       d="M20.954,18.002c0,0,1.804-1.593,3.022-0.52c0.762,0.902,0.867,2.047-0.312,2.742   c-1.182,0.695-6.324,3.647-9.346,10.733c-1.631,4.205-2.602,10.109,0.244,16.742c0.694,1.739,2.709,4.462,2.709,4.462   s1.045,1.586-0.277,2.384s-1.98,0.205-2.364-0.244c-0.381-0.453-3.507-4.445-4.618-9.691c-1.114-5.243-0.801-11.673,2.117-16.954   C15.046,22.377,17.651,20.333,20.954,18.002z"
       fill="#241F20"
       id="path12" /><path
       d="M46,11.606c-0.02-0.021-0.046-0.043-0.127-0.084c-0.811-0.418,0-1.41,0-1.41v-0.001l5.812-6.599   C54.601,0.2,51.68,0.004,51.68,0.004H12.203c-2.661,0-1.055,2.182-0.316,3.048l0.316,0.35v0.001l6.468,7.187   c0.003,0.003,0.414,0.47-0.098,0.719c-0.033,0.017-0.046,0.034-0.068,0.052C8.016,16.395,0.77,27.1,0.77,39.497   c0,7.419,2.589,14.225,6.92,19.592c1.458,1.801,3.126,3.452,4.946,4.907h38.727C58.59,58.284,63.23,49.427,63.23,39.497   C63.23,27.3,56.209,16.737,46,11.606z M49.95,60.59h-3.084h-0.537H14.353c0,0-17.986-14.703-4.165-37.522   c0.495-0.873,1.036-1.709,1.625-2.514c0.111-0.16,0.205-0.312,0.316-0.472c0.006,0.007,0.01,0.013,0.013,0.021   c2.53-3.292,5.826-5.968,9.652-7.704l-0.003-0.003c0.095-0.045,0.192-0.088,0.29-0.13c0,0,0-0.001,0.003-0.002   c1.26-0.619,0.781-1.647,0.361-2.231l-0.361-0.441v0l-4.371-5.322c-0.667-0.816,0.388-0.886,0.704-0.89h28.198   c0,0,1.512-0.034,0,1.748v0.001L42.789,9.63v0c0,0-1.566,1.979,0,2.756h0.003l0.573,0.271c5.139,2.481,9.265,6.666,11.763,11.795   c0.01,0.005,0.017,0.006,0.026,0.013C67.266,45.551,49.95,60.59,49.95,60.59z"
       fill="#241F20"
       id="path14" /></g><path
     style="fill:#f2f2f2;stroke-width:0.27118644"
     d="M 10.692418,62.04797 C 1.0572571,52.895509 -1.6765567,39.50256 3.5379406,26.998199 5.9207211,21.284293 11.131307,15.576679 16.839364,12.427977 18.009647,11.78242 18.968461,11.132203 18.970059,10.983051 18.971658,10.833898 17.318056,8.8813559 15.295387,6.6440678 11.366293,2.2980682 10.509393,1.0432107 11.080594,0.47186091 11.340726,0.21166069 15.975749,0.11911379 31.570408,0.06274348 51.087455,-0.00780517 51.744323,0.00631501 52.366064,0.50977055 52.990075,1.0150638 52.995645,1.055144 52.564591,1.9385525 52.32067,2.4384503 50.666593,4.4949153 48.888862,6.5084746 c -1.77773,2.0135593 -3.310966,3.8736684 -3.407194,4.1335754 -0.21341,0.576408 -0.07281,0.701442 2.653925,2.360168 7.407187,4.505931 12.512049,11.78981 14.391301,20.534251 0.566874,2.637763 0.638717,8.393025 0.139921,11.209294 -1.164269,6.573602 -4.461218,12.679444 -9.335016,17.288135 L 51.252602,64 H 32 12.747398 Z m 40.710134,-2.725936 c 3.157635,-3.503111 6.032249,-8.591772 7.161857,-12.677966 1.845069,-6.674265 1.083287,-13.368515 -2.302261,-20.23139 -3.391238,-6.87441 -6.554796,-10.432324 -11.899187,-13.382493 -2.862386,-1.580072 -2.844726,-1.707867 0.835933,-6.0495689 1.284851,-1.5156095 2.249903,-2.8939897 2.20164,-3.1445985 -0.07851,-0.407664 -1.371419,-0.4461871 -14.974869,-0.4461871 -10.534169,0 -14.917855,0.086739 -14.987795,0.29656 -0.05437,0.1631081 1.129307,1.8105657 2.630391,3.661017 1.775317,2.188509 2.70243,3.5537805 2.652526,3.9061215 -0.0515,0.363626 -0.760491,0.907972 -2.157023,1.656116 -2.870781,1.537923 -4.40349,2.714074 -6.784341,5.206083 -2.25171,2.356839 -4.4939602,5.883244 -6.2021145,9.754119 -4.896277,11.095528 -2.948957,22.735121 5.2619945,31.452187 l 1.341067,1.423729 H 32.149801 50.11923 Z"
     id="path3728"
     inkscape:connector-curvature="0" /><path
     style="fill:#f2f2f2;stroke-width:0.27118644"
     d="m 31.457627,51.770047 c -2.179864,-0.425714 -4.586481,-1.829351 -6.615642,-3.858512 l -1.901693,-1.901693 1.603289,-1.457035 c 3.304636,-3.003181 7.812388,-4.525009 11.566802,-3.904981 2.741708,0.452783 4.725471,1.435377 8.498786,4.209599 0.229233,0.168537 1.029932,-0.241561 2.515027,-1.288136 1.198299,-0.844465 2.312688,-1.535391 2.476418,-1.535391 0.202982,0 0.297691,1.302334 0.297691,4.093566 v 4.093565 l -1.288136,-0.753824 c -0.708474,-0.414603 -1.830671,-1.097385 -2.493771,-1.517294 -0.663099,-0.419909 -1.317175,-0.76347 -1.453502,-0.76347 -0.136327,0 -0.88261,0.579661 -1.658407,1.288135 -3.122395,2.851441 -7.468773,4.091896 -11.546862,3.295471 z"
     id="path3730"
     inkscape:connector-curvature="0" /><path
     style="fill:#f2f2f2;stroke-width:0.27118644"
     d="m 26.359395,36.110288 c -2.684248,-1.431294 -2.594547,-5.586003 0.145319,-6.730792 1.862644,-0.778262 3.981427,-0.08068 4.848657,1.596356 0.971031,1.877768 0.200187,4.327378 -1.635918,5.198667 -1.173739,0.556976 -2.230972,0.536753 -3.358058,-0.06423 z"
     id="path3732"
     inkscape:connector-curvature="0" /><path
     style="fill:#f2f2f2;stroke-width:0.27118644"
     d="M 14.392686,53.719921 C 13.177897,52.186126 11.252402,48.420287 10.61969,46.340789 8.9730756,40.928951 9.3138958,34.257383 11.493702,29.231963 c 1.584114,-3.652084 4.802632,-7.594181 8.366249,-10.247128 2.397179,-1.784588 3.718934,-2.126748 4.266101,-1.104358 0.595592,1.112874 0.326477,1.567638 -1.820967,3.077167 -6.198986,4.357529 -9.555522,10.713068 -9.555522,18.093203 0,4.537493 1.031013,8.105535 3.36364,11.6406 1.546562,2.343794 1.683341,2.834042 0.985414,3.53197 -0.870675,0.870674 -1.746663,0.70768 -2.705931,-0.503496 z"
     id="path3734"
     inkscape:connector-curvature="0" /><path
     style="fill:#f2f2f2;stroke-width:0.27118644"
     d="m 31.157111,16.595166 c -0.796931,-0.712058 -0.919823,-0.991013 -0.919823,-2.087927 0,-1.050068 0.129427,-1.377392 0.758634,-1.918614 1.061441,-0.913013 1.974314,-1.082668 3.054338,-0.567641 2.617634,1.248263 1.99788,4.863392 -0.900392,5.252132 -0.919765,0.123367 -1.204246,0.02658 -1.992757,-0.67795 z"
     id="path3736"
     inkscape:connector-curvature="0" /><path
     style="fill:#f2f2f2;stroke-width:0.27118644"
     d="m 36.733436,28.080123 c -0.854134,-0.854134 -0.870029,-2.030854 -0.03799,-2.812512 1.936901,-1.819624 4.653171,0.933851 2.77451,2.812512 -0.848346,0.848346 -1.888173,0.848346 -2.736518,0 z"
     id="path3738"
     inkscape:connector-curvature="0" /></svg>