<svg id="Capa_1" enable-background="new 0 0 512 512" height="512" viewBox="0 0 512 512" width="512" xmlns="http://www.w3.org/2000/svg"><g><circle cx="327.312" cy="329.345" r="7.5"/><path d="m363.117 322.099c-1.458-1.488-.031-2.563-14.123-19.031-6.034-6.619-12.814-12.523-20.237-17.611-10.827-7.637-26.637-14.7-40.35-17.607-3.175-12.382-12.223-24.011-25.974-33.202-21.854-14.636-45.587-10.916-54.777-8.638-2.806.696-4.962 2.941-5.542 5.773-3.376 16.481-1.307 32.342 6.346 46.409-12.894 6.737-24.5 15.897-34.193 27.138l-19.266-19.266c-13.145-13.129-34.529-13.129-47.68.008-11.477 11.465-13.1 30.078-3.701 43.271-9.286 13.146-8.052 31.511 3.706 43.28 6.363 6.363 14.827 9.867 23.834 9.867 9.013 0 17.48-3.504 23.845-9.868l19.259-19.266c9.694 11.242 21.3 20.404 34.195 27.142-7.611 14.016-9.721 29.935-6.345 46.41.58 2.832 2.736 5.077 5.542 5.773 15.91 3.946 37.118 3.167 54.772-8.634 13.756-9.195 22.805-20.824 25.979-33.207 10.228-2.416 24.986-7.273 40.224-17.661 8.599-5.862 15.301-12.089 20.362-17.557 0 0 10.815-12.831 16.208-22.671 2.133-3.893.635-8.076-2.084-10.852zm-199.716 16.5c.563.904 1.144 1.792 1.728 2.677l-20.732 20.741c-3.529 3.53-8.23 5.474-13.236 5.474-5 0-9.697-1.944-13.225-5.471-7.293-7.301-7.294-19.173-.002-26.466 1.725-1.725 3.114-3.727 3.106-6.234-.007-2.4-1.385-4.458-3.102-6.177-3.533-3.54-5.479-8.242-5.479-13.242 0-4.993 1.945-9.692 5.471-13.224 7.298-7.291 19.172-7.29 26.466-.003l20.735 20.735c-.585.886-1.167 1.776-1.731 2.681-3.505 5.622-3.505 12.888.001 18.509zm52.611-98.97c8.478-1.31 24.078-1.891 38.08 7.487 8.089 5.407 14.005 11.656 17.369 18.192-2.919-.22-5.856-.343-8.813-.343-14.057 0-27.69 2.471-40.404 7.128-1.202-2.102-2.256-4.226-3.118-6.359-3.203-7.933-4.259-16.873-3.114-26.105zm38.075 171.95c-13.999 9.374-29.598 8.793-38.075 7.483-1.145-9.232-.089-18.173 3.115-26.11.853-2.118 1.908-4.241 3.117-6.354 12.714 4.657 26.347 7.128 40.404 7.128 2.957 0 5.895-.123 8.813-.343-3.364 6.536-9.282 12.786-17.374 18.196zm47.056-40.406c-12.027 4.911-25.068 7.552-38.496 7.552-14.015 0-27.545-2.825-39.947-8.091-.366-.188-.739-.351-1.122-.475-18.458-8.103-34.336-21.671-45.45-39.497-.499-.801-.499-1.836 0-2.637 11.097-17.799 26.945-31.352 45.368-39.459.446-.137.879-.328 1.302-.553 12.375-5.24 25.871-8.05 39.849-8.05 13.428 0 26.469 2.642 38.496 7.552-8.201 12.339-12.643 26.875-12.643 41.828s4.442 29.491 12.643 41.83zm13.547-6.757c-7.251-10.211-11.19-22.457-11.19-35.071s3.939-24.861 11.19-35.071c12.904 7.727 25.565 19.281 35.285 35.071-8.298 13.917-21.058 26.065-35.285 35.071z"/><path d="m470.412 164.071c-16.187-32.088-39.858-60.647-68.469-82.6-1.764-1.354-.648-7.776-.943-9.612 13.23-5.799 22.5-19.014 22.5-34.359 0-20.678-16.823-37.5-37.5-37.5h-260c-20.678 0-37.5 16.822-37.5 37.5 0 15.346 9.27 28.561 22.5 34.359-.982 1.545 1.028 8.109-.955 9.63-28.987 22.235-52.878 51.227-69.09 83.842-17.02 34.24-25.409 71.142-24.935 109.681 1.597 129.675 108.442 236.988 239.971 236.988 102.24 0 196.151-67.815 228.097-165.126 1.292-3.936-.853-8.173-4.788-9.464-3.939-1.292-8.174.854-9.464 4.789-29.883 91.141-117.768 154.801-213.844 154.801-123.846 0-223.458-98.944-224.974-222.172-.444-36.137 7.418-70.73 23.368-102.82 15.201-30.58 37.604-57.765 64.792-78.621 4.272-3.281 6.822-8.461 6.822-13.857v-4.53h27.253c4.143 0 7.5-3.358 7.5-7.5s-3.357-7.5-7.5-7.5h-27.253c-12.406 0-22.5-10.093-22.5-22.5s10.093-22.5 22.5-22.5h260c12.406 0 22.5 10.093 22.5 22.5s-10.094 22.5-22.5 22.5h-202.748c-4.143 0-7.5 3.358-7.5 7.5s3.357 7.5 7.5 7.5h202.748v4.53c0 5.407 2.556 10.588 6.824 13.85 26.82 20.579 49.019 47.359 64.195 77.446 15.912 31.545 23.981 65.585 23.981 101.174 0 14.207-1.333 28.425-3.961 42.26-.773 4.069 1.899 7.995 5.969 8.768 3.971.754 7.987-1.862 8.768-5.968 2.803-14.756 4.224-29.916 4.224-45.06 0-37.958-8.61-74.27-25.588-107.929z"/><path d="m452.009 210.56c-3.905-2.257-8.443-2.818-12.779-1.584-14.386 4.098-28.331 6.137-42.633 6.235-27.623.2-44.386-6.922-63.759-15.158l-2.513-1.067c-21.824-9.25-42.66-16.99-76.71-18.021-29.157-.877-49.246 3.893-66.618 9.181-3.246.987-6.393 1.991-9.437 2.962-19.562 6.242-35.014 11.171-59.237 6.993-12.128-2.091-24.104-6.148-35.594-12.056-4.134-2.125-9.002-2.394-13.363-.733-4.362 1.662-7.824 5.106-9.499 9.45-9.518 24.69-14.177 50.896-13.848 77.893.684 55.785 22.795 107.968 62.261 146.935 39.466 38.955 91.927 60.41 147.72 60.41h.456c56-.124 108.626-22.023 148.183-61.662 39.569-39.642 61.361-92.322 61.361-148.338 0-17.415-2.103-34.635-6.248-51.183-1.094-4.362-3.843-8.005-7.743-10.257zm-57.988 199.182c-36.731 36.808-85.599 57.143-137.582 57.258h-.439c-51.822 0-100.541-19.919-137.181-56.087-36.638-36.175-57.165-84.632-57.801-136.444-.305-25.081 4.017-49.411 12.846-72.313.339-.879 1.26-1.157 2.007-.772 12.847 6.606 26.272 11.147 39.904 13.499 27.843 4.802 46.545-1.167 66.347-7.484 2.994-.956 6.092-1.944 9.242-2.902 16.151-4.917 34.816-9.361 61.798-8.539 34.011 1.03 54.692 9.796 71.311 16.839 21.772 9.227 39.275 17.64 72.229 17.415 15.457-.106 31.148-2.396 46.639-6.809.896-.255 1.638.172 1.861 1.062 3.846 15.355 5.798 31.348 5.798 47.535 0 52.014-20.236 100.932-56.979 137.742z"/><path d="m405.99 261.5c-12.406 0-22.5 10.093-22.5 22.5s10.094 22.5 22.5 22.5 22.5-10.093 22.5-22.5-10.094-22.5-22.5-22.5zm0 30c-4.136 0-7.5-3.364-7.5-7.5s3.364-7.5 7.5-7.5 7.5 3.364 7.5 7.5-3.365 7.5-7.5 7.5z"/></g></svg>