<?xml version="1.0" encoding="UTF-8" standalone="no"?>
<svg
   xmlns:dc="http://purl.org/dc/elements/1.1/"
   xmlns:cc="http://creativecommons.org/ns#"
   xmlns:rdf="http://www.w3.org/1999/02/22-rdf-syntax-ns#"
   xmlns:svg="http://www.w3.org/2000/svg"
   xmlns="http://www.w3.org/2000/svg"
   xmlns:sodipodi="http://sodipodi.sourceforge.net/DTD/sodipodi-0.dtd"
   xmlns:inkscape="http://www.inkscape.org/namespaces/inkscape"
   aria-hidden="true"
   focusable="false"
   data-prefix="fas"
   data-icon="search"
   class="svg-inline--fa fa-search fa-w-16"
   role="img"
   viewBox="0 0 512 512"
   version="1.1"
   id="svg827"
   sodipodi:docname="search.svg"
   inkscape:version="0.92.4 (5da689c313, 2019-01-14)">
  <metadata
     id="metadata833">
    <rdf:RDF>
      <cc:Work
         rdf:about="">
        <dc:format>image/svg+xml</dc:format>
        <dc:type
           rdf:resource="http://purl.org/dc/dcmitype/StillImage" />
      </cc:Work>
    </rdf:RDF>
  </metadata>
  <defs
     id="defs831" />
  <sodipodi:namedview
     pagecolor="#ffffff"
     bordercolor="#666666"
     borderopacity="1"
     objecttolerance="10"
     gridtolerance="10"
     guidetolerance="10"
     inkscape:pageopacity="0"
     inkscape:pageshadow="2"
     inkscape:window-width="1858"
     inkscape:window-height="1057"
     id="namedview829"
     showgrid="false"
     inkscape:zoom="1.734375"
     inkscape:cx="256"
     inkscape:cy="256"
     inkscape:window-x="54"
     inkscape:window-y="-8"
     inkscape:window-maximized="1"
     inkscape:current-layer="svg827" />
  <path
     fill="currentColor"
     d="M505 442.7L405.3 343c-4.5-4.5-10.6-7-17-7H372c27.6-35.3 44-79.7 44-128C416 93.1 322.9 0 208 0S0 93.1 0 208s93.1 208 208 208c48.3 0 92.7-16.4 128-44v16.3c0 6.4 2.5 12.5 7 17l99.7 99.7c9.4 9.4 24.6 9.4 33.9 0l28.3-28.3c9.4-9.4 9.4-24.6.1-34zM208 336c-70.7 0-128-57.2-128-128 0-70.7 57.2-128 128-128 70.7 0 128 57.2 128 128 0 70.7-57.2 128-128 128z"
     id="path825" />
  <path
     style="fill:#ffffff;fill-opacity:1;stroke:none;stroke-width:0.57657659"
     d="m 452.8213,510.68739 c -1.81963,-0.6024 -4.54396,-1.89219 -6.05405,-2.8662 -1.51009,-0.97401 -26.11816,-25.19765 -54.6846,-53.83029 -48.84498,-48.95821 -52.0392,-52.28262 -53.62162,-55.80712 -1.64768,-3.66985 -1.68655,-3.98443 -1.87007,-15.13513 -0.10308,-6.26306 -0.29698,-11.38739 -0.43086,-11.38739 -0.13389,0 -2.77388,1.87808 -5.86663,4.17352 -9.13359,6.77891 -19.31919,12.8978 -30.99257,18.61844 -20.8924,10.2385 -41.16433,16.39744 -64.57658,19.6194 -9.16437,1.26119 -34.78134,1.77241 -44.54506,0.88895 C 96.988494,406.52938 21.200427,338.01281 3.8880989,246.54414 1.2352874,232.52817 0.69824444,226.16121 0.67830083,208.49009 0.65398971,186.94908 2.0409991,175.05324 6.6950827,156.88649 21.741054,98.156033 61.084494,49.325325 115.22523,22.185402 136.93292,11.30367 159.62774,4.6029507 185.71532,1.3729793 c 9.07683,-1.12382706 38.05557,-0.91120794 47.27927,0.3468915 19.2402,2.6243316 34.56654,6.510998 50.73874,12.8670342 68.13237,26.777536 117.19878,87.333395 129.08856,159.316125 2.31993,14.04525 2.83599,22.0351 2.50368,38.76271 -0.40556,20.41398 -2.27384,33.4523 -7.41568,51.75228 -6.49704,23.12321 -18.23141,47.2231 -32.07511,65.87545 -2.29544,3.09275 -4.17352,5.73274 -4.17352,5.86663 0,0.13388 5.12433,0.32778 11.38739,0.43086 l 11.38739,0.18742 4.03603,1.89949 c 3.84904,1.81148 6.47037,4.33598 56.57637,54.48649 57.32912,57.38003 54.88983,54.65584 56.29725,62.8723 0.77891,4.5473 0.0612,9.21173 -2.16978,14.10182 -1.26535,2.7735 -4.1823,5.97023 -18.6246,20.41095 -15.47462,15.47291 -17.50146,17.29827 -21.0395,18.94814 -5.11999,2.38756 -11.66355,2.85403 -16.69051,1.18982 z M 215.94265,335.90514 c 14.18939,-0.96874 26.31972,-3.60836 38.57919,-8.39502 42.99305,-16.78646 73.54209,-55.14834 80.2885,-100.82211 1.37453,-9.30564 1.64816,-25.66585 0.56474,-33.76549 -3.84184,-28.72164 -15.55158,-53.55743 -34.61692,-73.4208 -24.58248,-25.611448 -57.20923,-39.588206 -92.41303,-39.588206 -35.017,0 -66.41355,12.936885 -90.95414,37.477476 -24.594426,24.59443 -37.477476,55.89219 -37.477476,91.04684 0,28.31219 9.009845,54.69243 26.696566,78.16586 4.75048,6.30473 17.37831,18.76846 24.04217,23.72974 20.35033,15.15092 44.00535,23.96131 68.61261,25.555 3.64685,0.23619 7.01982,0.46434 7.4955,0.507 0.47568,0.0427 4.60771,-0.17797 9.18229,-0.49029 z"
     id="path835"
     inkscape:connector-curvature="0" />
</svg>
