<?xml version="1.0" encoding="UTF-8" standalone="no"?>
<svg
   xmlns:dc="http://purl.org/dc/elements/1.1/"
   xmlns:cc="http://creativecommons.org/ns#"
   xmlns:rdf="http://www.w3.org/1999/02/22-rdf-syntax-ns#"
   xmlns:svg="http://www.w3.org/2000/svg"
   xmlns="http://www.w3.org/2000/svg"
   xmlns:sodipodi="http://sodipodi.sourceforge.net/DTD/sodipodi-0.dtd"
   xmlns:inkscape="http://www.inkscape.org/namespaces/inkscape"
   enable-background="new 0 0 30 30"
   height="30px"
   id="Capa_1"
   version="1.1"
   viewBox="0 0 30 30"
   width="30px"
   xml:space="preserve"
   sodipodi:docname="shop.svg"
   inkscape:version="0.92.4 (5da689c313, 2019-01-14)"><metadata
     id="metadata13"><rdf:RDF><cc:Work
         rdf:about=""><dc:format>image/svg+xml</dc:format><dc:type
           rdf:resource="http://purl.org/dc/dcmitype/StillImage" /></cc:Work></rdf:RDF></metadata><defs
     id="defs11" /><sodipodi:namedview
     pagecolor="#ffffff"
     bordercolor="#666666"
     borderopacity="1"
     objecttolerance="10"
     gridtolerance="10"
     guidetolerance="10"
     inkscape:pageopacity="0"
     inkscape:pageshadow="2"
     inkscape:window-width="1538"
     inkscape:window-height="1177"
     id="namedview9"
     showgrid="false"
     inkscape:zoom="7.8666667"
     inkscape:cx="15"
     inkscape:cy="15"
     inkscape:window-x="54"
     inkscape:window-y="-8"
     inkscape:window-maximized="1"
     inkscape:current-layer="Capa_1" /><g
     id="g6"><g
       id="g4"><path
         d="M14.6,15.9H7.9c-1.5,0-2.7,1.2-2.7,2.7v1.9c0,1.5,1.2,2.7,2.7,2.7h6.7c1.5,0,2.7-1.2,2.7-2.7v-1.9    C17.3,17.1,16.1,15.9,14.6,15.9z M15.8,20.5c0,0.7-0.5,1.2-1.2,1.2H7.9c-0.7,0-1.2-0.5-1.2-1.2v-1.9c0-0.7,0.5-1.2,1.2-1.2h6.7    c0.7,0,1.2,0.5,1.2,1.2V20.5z M29.6,10.9l-1.4-7.4c-0.1-0.4-0.4-0.6-0.7-0.6h-25c-0.4,0-0.7,0.3-0.7,0.6L0.6,9.6    c-0.2,0.5-0.3,1-0.3,1.5c0,1.5,0.8,2.9,2.1,3.6v10.3c0,1.2,1,2.2,2.2,2.2h14c0.4,0,0.8-0.3,0.8-0.8c0,0,0,0,0-0.1c0,0,0,0,0-0.1    v-9h4v9c0,0,0,0,0,0.1c0,0,0,0,0,0.1c0,0.4,0.3,0.8,0.8,0.8h1.4c1.2,0,2.2-1,2.2-2.2V14.5c1.1-0.7,1.8-1.9,1.9-3.2    C29.7,11.2,29.7,11,29.6,10.9z M26.2,24.9c0,0.4-0.3,0.7-0.7,0.7h-0.7v-9.1c0-0.4-0.3-0.8-0.8-0.8h-5.5c-0.4,0-0.8,0.3-0.8,0.8    v9.1H4.6c-0.4,0-0.7-0.3-0.7-0.7v-9.7c0.2,0,0.4,0.1,0.6,0.1c1.4,0,2.7-0.7,3.5-1.8c0.8,1.1,2,1.8,3.5,1.8s2.7-0.7,3.5-1.8    c0.8,1.1,2,1.8,3.5,1.8s2.7-0.7,3.5-1.8c0.8,1.1,2,1.8,3.5,1.8c0.3,0,0.6,0,0.8-0.1V24.9z M28.1,11c0,1.5-1.2,2.7-2.7,2.7    s-2.7-1.2-2.7-2.7c0-0.4-0.3-0.8-0.8-0.8s-0.8,0.3-0.8,0.8c0,1.5-1.2,2.7-2.7,2.7s-2.7-1.2-2.7-2.7c0-0.4-0.3-0.8-0.8-0.8    s-0.8,0.3-0.8,0.8c0,1.5-1.2,2.7-2.7,2.7c-1.5,0-2.7-1.2-2.7-2.7c0-0.4-0.3-0.8-0.8-0.8S7.3,10.6,7.3,11c0,1.5-1.2,2.7-2.7,2.7    c-1.5,0-2.7-1.2-2.7-2.7c0-0.3,0.1-0.7,0.2-1c0,0,0-0.1,0-0.1l1.1-5.5h23.8l1.2,6.5C28.1,11,28.1,11,28.1,11z"
         fill="#262324"
         id="path2" /></g></g><path
     style="fill:#f2f2f2;stroke-width:0.12711865"
     d="M 3.6238073,26.856989 C 3.2745409,26.672737 2.9566368,26.373542 2.7796335,26.062497 2.4982665,25.568056 2.4956744,25.514869 2.4920125,20.161017 l -0.0037,-5.402542 -0.6879487,-0.603302 C 0.5104523,13.023971 0.12813267,11.696599 0.56450969,9.8644068 0.70605052,9.2701271 1.0632879,7.5540254 1.3583705,6.0508475 1.6534532,4.5476695 1.9503278,3.2462924 2.018092,3.1588983 2.1152101,3.0336469 4.8524992,3 14.945016,3 26.980229,3 27.7604,3.0133523 27.94313,3.2224576 c 0.206199,0.2359612 1.673306,7.5589624 1.646663,8.2192514 -0.03135,0.776989 -0.426043,1.610682 -1.114684,2.354495 l -0.686973,0.742014 -0.0056,5.321993 c -0.0059,5.584776 -0.03752,5.938988 -0.586148,6.555988 -0.128999,0.145076 -0.463357,0.368846 -0.743018,0.497268 -0.663095,0.304493 -2.293401,0.329321 -2.704766,0.04119 L 23.466102,26.75677 v -4.8233 -4.823301 h -2.033899 -2.033898 v 4.686247 c 0,4.548468 -0.0077,4.696095 -0.263463,5.021187 l -0.263464,0.334939 H 11.527717 4.1840551 Z m 14.1219557,-5.92418 c 0,-5.074306 -0.01106,-4.990492 0.681371,-5.164281 0.15523,-0.03896 1.557414,-0.05335 3.115966,-0.03197 2.633622,0.03612 2.846456,0.05629 3.013958,0.285621 0.147828,0.20239 0.18023,1.087984 0.18023,4.925847 v 4.679094 h 0.562808 c 0.456602,0 0.612525,-0.0632 0.826271,-0.33494 0.256106,-0.325587 0.263464,-0.47068 0.263464,-5.195924 v -4.860983 l -1.048729,-0.05904 c -1.254481,-0.07063 -1.986837,-0.379158 -2.786499,-1.173913 l -0.550366,-0.546988 -0.713439,0.660449 c -0.916898,0.848796 -1.780837,1.145606 -3.081242,1.058573 -1.110195,-0.0743 -1.92596,-0.436249 -2.677838,-1.188127 l -0.546544,-0.546544 -0.494705,0.511482 c -0.272088,0.281316 -0.780723,0.663575 -1.1303,0.849465 -0.559253,0.297388 -0.780639,0.338056 -1.84322,0.338594 -1.421195,7.19e-4 -2.1366895,-0.275043 -2.9889946,-1.152001 L 8.0137515,13.458144 7.3518939,14.066724 C 6.5628556,14.792246 5.5617582,15.20339 4.5842144,15.20339 H 3.8898305 v 5.078429 c 0,4.702494 0.016468,5.08802 0.2224576,5.207999 0.1432364,0.08343 2.6104125,0.130946 6.9279659,0.133435 l 6.705509,0.0039 z M 6.0219142,13.343185 c 0.7379798,-0.427848 1.1628416,-1.109275 1.30099,-2.086629 0.061935,-0.438175 0.1871829,-0.843981 0.2783275,-0.901791 0.4907554,-0.31127 0.9190937,0.05669 1.0569421,0.907947 0.2456607,1.517038 1.293251,2.455631 2.7422952,2.456971 1.346987,0.0012 2.412271,-0.903202 2.694717,-2.287869 0.179091,-0.877974 0.383325,-1.186051 0.786271,-1.186051 0.401475,0 0.677374,0.361593 0.778474,1.02027 0.266891,1.738815 1.689973,2.757575 3.353608,2.400789 1.151694,-0.246994 2.164427,-1.481873 2.164427,-2.639203 0,-0.674884 0.756692,-1.025897 1.186865,-0.550561 0.115126,0.127212 0.265513,0.5276 0.334192,0.889751 0.147811,0.779403 0.378959,1.25796 0.786781,1.628915 1.050166,0.955233 2.59974,0.994029 3.654157,0.09149 0.60258,-0.515786 0.751964,-0.758997 0.967096,-1.574526 0.141059,-0.534725 0.101131,-0.880929 -0.440498,-3.8194227 L 27.070942,4.4618644 15.099031,4.4294364 C 8.5144791,4.4116009 3.1271186,4.4194589 3.1271186,4.4468986 c 0,0.02744 -0.2860169,1.4586098 -0.6355932,3.1803783 -0.3495762,1.7217685 -0.6355932,3.3186751 -0.6355932,3.5486801 0,0.569324 0.5731743,1.677539 1.0392961,2.009447 0.9432913,0.671683 2.1364242,0.731892 3.1266859,0.157781 z"
     id="path15"
     inkscape:connector-curvature="0" /><path
     style="fill:#f2f2f2;stroke-width:0.12711865"
     d="M 6.75,22.876542 C 5.5301146,22.226038 5.2524037,21.538348 5.3094588,19.30936 c 0.040343,-1.576096 0.058548,-1.673564 0.4061839,-2.174649 0.2270613,-0.327289 0.6069866,-0.64571 1.0101285,-0.846604 l 0.6461808,-0.322005 3.883939,0.0028 c 4.360226,0.0031 4.521655,0.03137 5.30938,0.928536 0.578311,0.658659 0.701884,1.205691 0.651873,2.885688 -0.05109,1.71616 -0.260693,2.253577 -1.114184,2.856714 l -0.539652,0.381355 -4.215976,0.02936 C 7.6887646,23.076019 7.0809356,23.053014 6.75,22.876542 Z m 8.230729,-1.196729 c 0.705178,-0.195838 0.858254,-0.592045 0.858254,-2.221414 0,-1.323539 -0.0075,-1.358346 -0.371578,-1.722415 L 15.095828,17.364407 H 11.282243 7.468659 L 7.0775498,17.693503 6.6864407,18.0226 v 1.485839 c 0,1.668456 0.1095117,1.964667 0.8001877,2.164378 0.570806,0.165051 6.9036856,0.170963 7.4941006,0.007 z"
     id="path17"
     inkscape:connector-curvature="0" /></svg>